<svg width="214" height="383" viewBox="0 0 214 383" fill="none" xmlns="http://www.w3.org/2000/svg">
<path d="M71.4572 378.288C72.5175 378.288 73.377 379.147 73.377 380.207C73.377 381.268 72.5175 382.127 71.4572 382.127H1.91975C0.8595 382.127 0 381.268 0 380.207C0 379.147 0.8595 378.288 1.91975 378.288H71.4572ZM207.119 382.127H163.392C162.368 382.127 161.472 381.389 161.472 380.503V379.912C161.472 379.026 162.325 378.288 163.392 378.288H207.119C208.143 378.288 209.039 379.026 209.039 379.912V380.503C209.039 381.389 208.186 382.127 207.119 382.127Z" fill="#3ABF7C"/>
<path d="M71.6815 378.301C71.6079 378.292 71.5331 378.288 71.4572 378.288H2.22187C2.176 378.054 2.15273 377.76 2.15938 377.379C2.20725 377.081 2.21321 376.739 2.30447 376.4C2.85206 374.361 3.51571 373.007 5.45675 371.804C7.3978 370.6 9.37927 369.526 11.4438 368.58C19.0584 365.001 21.6604 365.047 26.6671 361.763C28.7391 360.391 30.6442 358.803 32.4235 357.085C33.6098 355.939 36.1739 354.078 40.1158 351.502L71.9419 351.502L71.6815 378.301ZM207.352 378.3C207.276 378.292 207.198 378.288 207.119 378.288H163.538L166.987 356.525L197.532 352.387L207.352 378.3Z" fill="#474961"/>
<path d="M117.276 209.817C107.572 241.921 101.513 264.06 91.2919 297.575C89.177 303.572 88.3968 308.121 88.9513 311.22C89.7831 315.869 93.8845 324.204 95.8831 333.294C97.8818 342.383 77.3846 332.41 59.954 329.062C42.5234 325.715 24.5682 322.299 25.0347 319.688C26.1637 313.482 43.8699 305.365 45.2699 297.575C46.67 289.786 47.7302 281.303 47.9257 279.907C56.8946 226.629 65.3109 185.692 69.8717 163.425C71.7957 153.877 75.4918 135.849 88.9513 117.395C89.827 116.228 90.5365 115.32 90.9533 114.758C92.1905 113.449 93.5758 112.462 94.9916 111.72C94.9601 111.457 94.9287 111.195 94.8973 110.934C98.3092 108.4 100.624 106.567 114.43 105.516C114.771 105.51 115.154 105.46 115.495 105.454C128.881 104.751 140.244 109.636 148.815 120.171C154.286 128.313 158.573 138.329 161.675 150.217C164.523 161.13 175.373 210.048 194.226 296.974C195.074 299.484 195.896 301.326 196.692 302.5C199.343 306.408 207.166 311.739 212.689 319.23C218.212 326.721 195.43 325.947 178.145 329.978C160.86 334.01 143.068 338.193 142.432 335.618C141.25 330.763 149.082 320.583 151.45 312.74C144.272 293.215 137.222 272.931 130.384 251.971C125.738 237.69 121.377 223.631 117.276 209.817Z" fill="#4F46E5"/>
<path opacity="0.176986" d="M117.146 209.913C107.488 241.875 101.434 263.984 91.2417 297.408C89.1267 303.405 88.3466 307.953 88.9011 311.052C89.7329 315.701 93.8342 324.036 95.8329 333.126C97.8316 342.215 77.3344 332.242 59.9037 328.895C42.4731 325.547 24.518 322.132 24.9844 319.521C26.1134 313.314 43.8196 305.198 45.2197 297.408C46.6197 289.618 47.68 281.135 47.8755 279.739C56.8444 226.461 65.2607 185.524 69.8215 163.258C71.7455 153.709 75.4416 135.682 88.9011 117.228C89.7767 116.06 90.4862 115.152 90.9031 114.59C92.1147 113.308 93.4682 112.336 94.8534 111.599C96.4371 124.814 98.2108 139.826 100.79 151.668C103.401 163.649 106.878 175.007 110.499 186.934C112.636 194.514 114.85 202.175 117.146 209.913Z" fill="#444444"/>
<path d="M133.642 45.2486C135.991 45.9288 138.215 46.9222 140.144 48.1565C148.415 53.4503 153.284 63.5402 149.504 73.4745C148.717 75.5442 146.073 78.0499 141.571 80.9918C141.206 81.0328 140.844 81.0688 140.485 81.0997L139.069 96.3856C139.027 96.8549 138.984 97.2815 138.984 97.7507C138.941 99.8838 138.557 103.041 136.723 105.344C134.163 108.587 130.366 113.279 114.497 113.45C97.4321 113.621 93.3366 108.928 90.6917 105.6C88.8572 103.339 88.388 100.609 88.3453 98.3907C88.3453 97.9214 88.3026 97.4948 88.26 97.0255L86.7538 80.9823C78.7522 79.6423 77.5302 74.3404 76.21 70.2375C73.5203 61.8788 79.2658 52.0505 86.4001 47.3501C91.4819 44.002 97.715 42.5963 103.515 43.7949C106.18 43.0088 109.061 42.5671 112.108 42.5474H114.539C121.905 42.5034 128.625 43.1507 133.642 45.2486Z" fill="#3ABF7C"/>
<path opacity="0.176986" d="M86.7385 80.82C78.8994 79.4308 77.686 74.1781 76.3758 70.1064C73.6861 61.7477 79.4316 51.9194 86.5659 47.219C91.6965 43.8387 98.0005 42.4384 103.848 43.6989C94.847 46.2396 88.2552 52.6913 85.9989 60.1238C85.3164 62.3421 85.1884 64.7312 85.4443 67.0349L86.7385 80.82Z" fill="#444444"/>
<path d="M100.553 36.3098C100.441 36.3379 100.327 36.3662 100.211 36.3948C96.4678 37.3305 96.6865 37.2602 96.4252 37.3275C93.6599 37.7328 91.3767 37.3593 90.9571 37.2445C87.4576 36.5293 84.1432 29.4979 83.5301 19.9184C83.456 19.1434 83.5095 18.3774 83.5206 17.6084L84.1809 9.99961C84.2999 8.29733 84.8841 6.67034 85.8365 5.28291C85.9335 5.11864 86.0275 4.99692 86.1216 4.8752C86.4492 4.47046 86.7769 4.06572 87.0986 3.74609C88.3428 2.46461 89.7731 1.58103 91.2251 0.998318C94.6398 -0.131391 98.3938 0.00281566 100.458 0.446534C100.753 0.509922 101.68 0.703063 102.988 0.965544C104.201 1.34974 105.381 1.6033 106.612 1.73215C107.29 1.82233 107.759 2.45384 107.711 3.13475L106.524 13.9996C106.495 14.26 109.709 11.803 113.035 12.6826C114.108 12.9662 115.588 14.473 117.474 17.2031C116.802 19.2611 116.45 20.3194 116.418 20.3781C115.022 22.9308 113.999 24.5357 113.348 25.1929L113.089 32.0352L113.527 42.5474H112.108C108.049 42.5737 104.283 43.3491 100.931 44.6899L100.553 36.3098ZM192.62 327.403L197.535 352.395L167.07 356.679L163.835 333.163C168.424 332.151 173.377 330.993 178.29 329.847C182.89 328.774 187.879 328.042 192.62 327.403ZM47.8742 326.552C51.8104 327.341 55.969 328.138 60.0982 328.931C65.5095 329.97 71.2163 331.648 76.4539 333.196L71.9478 351.966H39.6748L47.8742 326.552ZM85.1842 105.975C80.3014 109.85 75.3481 111.598 70.3242 111.217C55.8441 110.121 40.9434 95.848 25.622 68.3989L25.6248 68.3974L25.6232 68.3971L10.4684 39.4081C14.2505 36.2483 17.7437 36.3713 20.9478 39.7769C23.9 43.6526 25.5999 45.9655 26.0475 46.7155C32.7498 57.9461 38.1474 55.956 44.7047 64.2096L65.151 81.8142L72.6257 74.1018C71.6854 70.5407 70.7801 66.7665 69.9098 62.7791C67.6419 61.2479 64.1459 58.4611 58.4456 53.6859C57.9111 53.2381 55.2797 52.6426 50.5517 51.8995C43.5249 52.8205 40.3492 50.84 41.0246 45.9582L71.1743 43.9832C74.3824 43.773 77.4749 45.2196 79.3698 47.8169C81.6614 50.9579 83.3052 53.5856 84.3012 55.6998L102.382 82.8121L111.788 67.5521C114.538 72.4907 118.626 74.7262 124.26 77.9122C128.888 80.5293 134.46 81.5208 140.976 80.8866C128.411 105.753 116.087 118.363 104.004 118.715C96.9991 118.919 90.7259 114.672 85.1842 105.975Z" fill="#FFC7B3"/>
<path opacity="0.2" d="M85.452 105.918C80.5463 109.833 75.5693 111.6 70.521 111.217C56.0409 110.121 41.1402 95.848 25.8189 68.399L25.8217 68.3975L25.8201 68.3972L10.6653 39.4081C14.4474 36.2484 17.9406 36.3713 21.1447 39.777C24.0969 43.6527 25.7968 45.9656 26.2443 46.7156C32.9466 57.9461 38.3442 55.9561 44.9016 64.2097L65.3478 81.8143L72.8661 74.0571C76.5302 87.9098 80.7255 98.5302 85.452 105.918Z" fill="#8C2A00"/>
<path d="M100.717 39.9071L105.757 34.976L100.564 36.306L100.717 39.9071Z" fill="#482D1F"/>
<path d="M121.577 21.8869C121.018 23.9165 121.179 25.4698 122.058 26.547C126.469 31.9473 128.472 32.7367 127.369 34.7133C126.11 36.9709 121.417 37.5654 113.29 36.4968C107.875 32.8349 109.09 26.2301 109.098 25.6543C109.095 25.6494 109.093 25.6445 109.091 25.6397C109.656 25.5507 111.415 25.4159 112.873 24.1086C114.33 22.842 115.297 20.643 114.728 18.3794C114.238 16.2069 112.318 14.3192 110.272 14.219C109.12 14.1812 108.145 14.6689 108.011 14.7451C106.453 15.6198 105.677 16.934 105.677 16.934L105.19 17.8551C105.055 17.6105 104.926 17.382 104.805 17.1724C102.058 13.6446 99.3086 10.1594 96.5192 6.62865C91.5874 5.12912 86.9518 5.23263 86.2156 4.75349C86.5432 4.34875 86.8709 3.94401 87.1926 3.62439C88.4369 2.34291 89.8671 1.45932 91.3191 0.876614C94.7338 -0.253095 98.4878 -0.118888 100.552 0.32483C100.847 0.388218 101.775 0.581359 103.082 0.84384C103.462 0.91318 103.842 0.98252 104.307 1.05781C105.408 1.2203 106.253 1.36493 106.761 1.4432C113.199 2.3211 115.761 1.77321 118.87 3.78678C119.442 4.1689 120.748 5.07271 121.792 6.64256C124.808 11.2155 123.452 16.5518 123.083 18.1511C122.715 19.5817 122.177 20.821 121.577 21.8869ZM83.0871 14.6657C82.674 14.529 82.567 14.0001 82.8998 13.7401C83.3225 13.4481 84.0096 13.1027 84.8617 13.1643C86.6082 13.2928 88.3888 14.543 86.453 14.907C85.2154 15.1849 83.876 14.8915 83.0871 14.6657ZM91.3016 15.6743C90.8886 15.5376 90.7816 15.0087 91.1567 14.7539C91.5794 14.4619 92.2665 14.1165 93.1609 14.1833C94.9074 14.3118 96.6829 15.6043 94.7522 15.926C93.4722 16.1987 92.1329 15.9053 91.3016 15.6743Z" fill="#482D1F"/>
<path d="M13.2389 24.3668C14.3731 23.6253 15.6518 23.5562 16.0975 24.2452L37.1462 55.3354C37.5919 56.0244 37.0936 57.1814 35.9631 57.9655C34.8289 58.7071 33.5503 58.7761 33.1046 58.0871L12.0559 26.997C11.5639 26.2692 12.1048 25.1084 13.2389 24.3668Z" fill="#474961"/>
<path d="M85.8625 18.3161C85.8588 19.0463 85.8402 20.2475 85.3544 20.7036C84.7104 21.3982 83.6369 19.2892 84.0997 17.9707C84.2995 17.3935 84.6167 17.2605 84.9554 17.3021C85.4635 17.3645 85.8402 17.7975 85.8625 18.3161ZM93.4307 18.9874C93.4694 19.7229 93.4085 20.9189 92.9227 21.375C92.2786 22.0696 91.2052 19.9606 91.6679 18.642C91.8677 18.0648 92.1849 17.9319 92.5237 17.9734C93.0318 18.0358 93.4084 18.4689 93.4307 18.9874Z" fill="#482D1F"/>
<path d="M90.2633 27.2807C90.5701 27.2324 91.3212 27.0667 91.5054 26.6165C91.5158 26.5318 91.5737 26.41 91.5418 26.3201C91.4036 26.0453 90.8375 26.1047 90.065 26.0958C88.6944 26.0565 87.6091 25.7943 87.6091 25.7943C87.6091 25.7943 87.8438 26.6827 88.0296 26.9204C88.3698 27.6499 89.782 27.3505 90.2633 27.2807Z" fill="#482D1F"/>
<path d="M86.9667 23.3466L86.9583 23.3934C86.9015 23.8555 87.1651 24.3235 87.6167 24.457C87.7003 24.4755 87.7471 24.4847 87.794 24.4936C88.2383 24.5777 88.5592 24.6215 89.7128 24.7632C89.9467 24.7919 90.1595 24.6256 90.1883 24.3918C90.217 24.1579 90.0507 23.945 89.8168 23.9163C88.6836 23.7772 88.3716 23.7346 87.9528 23.6553C87.9091 23.647 87.8656 23.6385 87.8219 23.6297C87.8314 23.6309 87.802 23.5774 87.8039 23.5142L88.8611 19.076L88.8711 19.0147L89.0931 16.5061C89.1139 16.2714 88.9405 16.0643 88.7058 16.0435C88.4711 16.0227 88.264 16.1961 88.2432 16.4308L88.0239 18.9085L86.9667 23.3466Z" fill="#482D1F"/>
<path d="M40.1014 29.5668V29.747C40.0299 29.7172 39.9588 29.6873 39.8881 29.6575C39.8173 29.6873 39.7462 29.7172 39.6747 29.747V29.5668C30.9976 25.8563 27.6152 21.6358 29.5275 16.9052C31.4437 12.1651 34.8972 11.4158 39.8881 14.6573C44.8789 11.4158 48.3324 12.1651 50.2486 16.9052C52.1609 21.6358 48.7785 25.8563 40.1014 29.5668Z" fill="#FF5645"/>
<path d="M112.158 67.6852C111.736 61.6015 112.744 57.0651 115.146 54.0559C115.366 53.7797 115.321 53.3771 115.045 53.1566C114.769 52.9361 114.366 52.9812 114.146 53.2574C111.515 56.5524 110.439 61.3979 110.881 67.7738C110.906 68.1264 111.212 68.3924 111.564 68.3679C111.917 68.3434 112.183 68.0378 112.158 67.6852Z" fill="#482D1F"/>
</svg>
