<svg width="279" height="404" viewBox="0 0 279 404" fill="none" xmlns="http://www.w3.org/2000/svg">
<path d="M56.9126 399.188H144.018C145.347 399.188 146.423 400.264 146.423 401.592C146.423 402.92 145.347 403.997 144.018 403.997H56.9126C55.5845 403.997 54.5078 402.92 54.5078 401.592C54.5078 400.264 55.5845 399.188 56.9126 399.188ZM154.706 399.188H209.749C211.077 399.188 212.153 400.264 212.153 401.592C212.153 402.92 211.077 403.997 209.749 403.997H154.706C153.378 403.997 152.301 402.92 152.301 401.592C152.301 400.264 153.378 399.188 154.706 399.188Z" fill="#FF5645"/>
<path d="M209.175 399.189H154.78L159.141 369.999H197.906L209.175 399.189ZM145.525 399.719C145.113 399.388 144.59 399.189 144.02 399.189H56.9139C56.8139 399.189 56.7152 399.196 56.6184 399.207C56.5876 398.961 56.5734 398.668 56.5795 398.317C56.6395 397.944 56.6469 397.516 56.7613 397.091C57.4472 394.537 58.2785 392.841 60.71 391.334C63.1414 389.826 65.6235 388.48 68.2096 387.296C77.748 382.812 81.0073 382.869 87.279 378.756C89.8745 377.038 92.2609 375.049 94.4898 372.896C95.9757 371.461 99.1876 369.13 104.125 365.902L142.392 366.02L145.525 399.719Z" fill="#474961"/>
<path d="M208.725 273.577C208.637 299.724 207.754 334.46 207.45 346.408C207.396 348.073 207.61 352.576 204.404 355.415C203.495 356.247 202.587 356.59 200.877 357.324C199.541 357.911 193.556 359.673 181.585 360.652C180.837 360.701 180.036 360.75 179.234 360.701C166.89 360.261 163.843 359.478 159.087 358.107C155.934 357.226 153.637 354.485 153.316 351.254C151.82 337.01 147.705 298.195 147.384 294.768C146.957 290.412 146.583 285.468 146.262 279.839L146.092 277.204L131.303 271.273C137.479 295.329 143.471 320.244 148.827 345.014C149.094 346.227 149.575 348.959 148.186 351.538C145.621 356.444 138.941 356.191 122.963 358.113C104.152 360.389 96.2964 362.766 92.0212 357.911C90.5784 356.343 90.0974 354.724 89.9371 353.966C86.0361 334.292 66.6911 277.191 59.1562 236.224C59.1562 236.123 59.1027 236.072 59.1027 235.971C56.698 222.771 65.7292 210.329 79.1424 208.66C83.5779 208.104 87.5858 207.568 92.0212 207.011C93.3649 206.852 94.7058 206.806 96.0322 206.866L162.244 205.698C201.515 205.35 196.108 200.713 208.387 206.461C216.574 210.293 222.148 221.202 225.109 239.19C226.169 252.866 220.708 264.329 208.725 273.577Z" fill="#A339FF"/>
<path opacity="0.176986" d="M208.794 273.525C208.799 272.159 208.801 270.817 208.801 269.502C208.801 259.321 208.854 250.559 208.961 244.93C209.068 240.476 209.87 216.002 199.503 210.911C198.594 210.471 197.686 210.128 195.869 209.492C194.426 209.002 186.944 206.457 177.325 206.849C171.073 207.093 161.668 207.485 153.919 213.604C143.231 222.072 143.498 235.434 143.605 237.588L146.163 277.232L131.382 271.304C127.265 255.266 123.065 239.609 118.916 224.633C116.082 214.441 106.61 207.385 96.2188 206.863L162.246 205.698C201.516 205.35 196.109 200.713 208.389 206.461C216.575 210.293 222.149 221.202 225.11 239.19C226.169 252.84 220.73 264.286 208.794 273.525Z" fill="#444444"/>
<path d="M152.475 106.032C153.118 105.749 153.775 105.498 154.447 105.279L165.851 101.405C166.512 101.283 167.17 101.175 167.825 101.083C168.724 100.034 170.555 99.1444 173.729 98.1528C185.003 94.5694 199.392 100.529 204.517 113.882C208.983 125.519 214.916 138.663 214.363 138.836C214.245 138.873 211.656 140.758 208.108 141.925C213.239 161.625 216.004 174.813 216.402 181.488C217.195 194.784 212.799 203.695 197.905 204.825C183.01 205.954 162.279 207.545 159.843 203.136C158.277 200.301 150.915 182.799 137.758 150.63C132.84 152.25 130.271 153.079 130.052 153.118C129.366 153.239 127.032 145.415 125.512 133.044C123.768 118.848 132.23 107.008 146.254 104.586C148.573 104.176 150.646 104.658 152.475 106.032Z" fill="#FF5645"/>
<path opacity="0.176986" d="M152.509 106.057C138.56 111.944 131.634 132.103 136.279 147.011C136.792 148.233 137.298 149.435 137.795 150.618C132.852 152.246 130.271 153.079 130.052 153.118C129.366 153.24 127.032 145.416 125.512 133.044C123.768 118.848 132.23 107.009 146.254 104.587C148.587 104.174 150.672 104.664 152.509 106.057Z" fill="#444444"/>
<path d="M129.482 107.717C129.482 107.717 128.467 111.779 133.864 110.656C139.261 109.534 140.811 109 140.811 109L139.422 105.312L129.482 107.717Z" fill="#482D1F"/>
<path d="M159.997 104.859L169.936 152.07L172.298 139.254C184.753 141.736 194.888 142.977 202.705 142.977C202.747 142.977 202.789 142.977 202.831 142.976C201.07 149.831 196.896 179.573 190.403 191.081C182.195 205.628 177.404 207.226 165.282 206.037C164.041 205.915 162.871 205.692 161.766 205.367C162.296 205.543 162.842 205.691 163.405 205.81L100.695 206.791L100.689 206.808L100.499 206.794L100.238 206.798C100.122 206.8 100.009 206.783 99.9015 206.749L74.0876 204.819C70.0869 204.52 66.4107 202.506 64.0049 199.295L60.6294 194.791C59.9862 193.932 59.5686 192.926 59.4148 191.865C58.9068 188.36 61.3364 185.107 64.8414 184.599L73.1117 183.4C78.2609 182.654 83.4914 182.664 88.6378 183.429L104.623 185.806C116.64 181.964 132.676 176.917 136.68 176.048L131.708 152.576L137.585 150.229C139.43 154.514 141.166 158.539 142.794 162.304C140.95 144.416 141.158 124.662 138.941 107.113L133.383 107.235C130.07 108.571 123.123 110.815 122.375 106.059C122.375 106.059 131.567 102.265 138.033 99.486L138.514 99.0585C138.941 98.6844 139.315 98.4707 139.85 98.3103C139.956 98.2569 140.063 98.2569 140.17 98.2569L140.525 98.2052C139.563 98.2783 138.887 98.2608 138.653 98.2349C134.183 98.0359 128.704 89.9859 126.069 78.2541C125.825 77.3098 125.741 76.3516 125.604 75.398L124.93 65.8548C124.744 63.7254 125.148 61.5979 126.054 59.6948C126.142 59.4725 126.234 59.3035 126.327 59.1345C126.653 58.5695 126.979 58.0045 127.314 57.546C128.603 55.7167 130.199 54.3433 131.881 53.3378C135.885 51.271 140.56 50.7546 143.197 50.8458C143.574 50.8665 144.759 50.9237 146.428 50.9923C148.005 51.2299 149.514 51.3124 151.062 51.2306C151.919 51.2093 152.623 51.8987 152.697 52.7505L153.357 66.4254C153.362 66.5265 153.388 66.6692 153.436 66.8534C158.817 64.6268 162.669 65.8972 164.993 70.6644C168.479 77.8153 165.323 76.2682 163.773 78.174C162.655 79.5055 161.265 80.1636 160.33 80.5136C160.155 80.5511 159.977 80.6534 159.82 80.7955L164.006 80.8358L164.746 83.7751L165.018 87.5062L167.768 101.159C167.768 101.159 163.889 103.323 159.997 104.859ZM150.65 96.7346L150.336 95.2005C150.205 95.2565 150.071 95.3131 149.935 95.3703C145.487 97.2614 145.744 97.1317 145.434 97.2661C144.768 97.4742 144.119 97.6402 143.503 97.7721L148.293 97.0812L150.65 96.7346ZM194.355 370.153H159.238L159.994 358.347C164.31 359.57 167.697 360.287 179.302 360.701C180.103 360.75 180.905 360.701 181.653 360.652C187.364 360.185 191.713 359.54 194.845 358.929L197.904 369.998L194.355 370.153ZM140.861 355.907L142.39 366.019H103.922L106.46 360.288C110.764 359.787 116.168 358.943 123.03 358.113C131.146 357.137 136.863 356.722 140.861 355.907Z" fill="#FECDAC"/>
<path d="M153.917 96.3277L151.897 96.6105L150.767 96.7767C150.729 96.766 150.691 96.755 150.652 96.7435L150.336 95.1994L156.071 92.7266C155.299 94.5055 154.581 95.7059 153.917 96.3277Z" fill="#482D1F"/>
<path d="M129.454 77.1022C129.644 78.0511 129.992 79.5763 129.627 80.3057C129.032 81.4842 126.945 79.0919 127.106 77.2539C127.201 76.4946 127.546 76.1426 127.972 76.1053C128.659 75.9916 129.287 76.4194 129.454 77.1022ZM140.811 75.0894C141.001 76.0383 141.349 77.5635 140.984 78.2928C140.389 79.4713 138.303 77.079 138.464 75.241C138.558 74.4818 138.903 74.1298 139.329 74.0925C140.016 73.9787 140.644 74.4066 140.811 75.0894Z" fill="#482D1F"/>
<path d="M132.076 76.9857L132.063 82.3512C132.118 83.0097 132.663 83.5806 133.29 83.5257C133.66 83.5234 133.896 83.5028 134.843 83.4017C135.266 83.3565 135.556 83.3275 135.899 83.2975C136.193 83.2718 136.41 83.0126 136.384 82.7186C136.359 82.4246 136.099 82.2071 135.805 82.2328C135.455 82.2635 135.159 82.2931 134.73 82.3389C133.822 82.4359 133.601 82.4552 133.238 82.459C133.217 82.4593 133.136 82.3742 133.13 82.306L133.145 76.9884C133.146 76.6932 132.907 76.4534 132.612 76.4527C132.317 76.4519 132.077 76.6906 132.076 76.9857Z" fill="#482D1F"/>
<path d="M136.966 86.3162C137.33 86.1772 138.202 85.7253 138.262 85.1837C138.253 85.0772 138.292 84.9128 138.234 84.8642C137.998 84.6167 137.324 84.8902 136.38 85.1337C134.7 85.549 133.262 85.6747 133.262 85.6747C133.262 85.6747 133.821 86.5378 134.11 86.7807C134.752 87.3683 136.399 86.5804 136.966 86.3162Z" fill="#482D1F"/>
<path d="M149.878 71.1346L151.649 70.5323C152.661 70.1882 153.177 71.706 152.165 72.0501L150.394 72.6524L149.058 73.1066C149.209 73.6035 149.312 74.1237 149.359 74.6618C149.724 78.8368 146.636 82.5174 142.461 82.8827C138.828 83.2005 135.57 80.904 134.544 77.5521L133.609 77.6993L132.836 77.821C132.993 81.8411 129.965 85.317 125.914 85.6714C121.739 86.0366 118.059 82.9482 117.693 78.7733C117.328 74.5983 120.417 70.9177 124.592 70.5524C128.336 70.2248 131.704 72.6806 132.606 76.2341L133.359 76.1157L133.609 77.6993C132.69 77.0195 132.687 76.9966 132.685 76.9735L131.846 76.3538L132.606 76.2341C132.644 76.3825 132.677 76.5328 132.706 76.6849C132.775 76.4112 132.985 76.1745 133.359 76.1157L134.239 75.9772C133.878 71.8052 136.965 68.1288 141.138 67.7637C144.211 67.4948 147.017 69.0974 148.429 71.6273L149.878 71.1346ZM132.095 77.9375C131.654 78.007 131.24 77.7017 131.177 77.2591C131.115 76.8252 131.413 76.422 131.846 76.3538L133.359 76.1157L134.239 75.9772C134.239 75.9796 134.24 75.9821 134.24 75.9846C134.287 76.5272 134.391 77.0514 134.544 77.5521L133.609 77.6993L132.095 77.9375ZM133.609 77.6993C133.226 77.7596 132.949 77.5898 132.802 77.3411L133.609 77.6993ZM142.321 81.2856C145.614 80.9975 148.05 78.0945 147.762 74.8016C147.474 71.5086 144.571 69.0727 141.278 69.3608C137.985 69.6489 135.549 72.5519 135.837 75.8448C136.125 79.1378 139.028 81.5737 142.321 81.2856ZM124.731 72.1495C121.438 72.4376 119.002 75.3406 119.29 78.6335C119.579 81.9265 122.482 84.3624 125.775 84.0743C129.067 83.7862 131.503 80.8832 131.215 77.5903C131.206 77.4792 131.193 77.3688 131.177 77.2591C130.729 74.1239 127.901 71.8722 124.731 72.1495Z" fill="#482D1F"/>
<path opacity="0.2" d="M163.373 205.812L100.663 206.792L100.658 206.81L100.468 206.795L100.207 206.799C100.091 206.801 99.9774 206.784 99.8702 206.751L74.0564 204.82C70.0556 204.521 66.3795 202.507 63.9736 199.297L60.5982 194.792C59.955 193.934 59.5374 192.928 59.3835 191.867C58.8756 188.362 61.3051 185.108 64.8102 184.6L73.0804 183.402C78.2296 182.655 83.4602 182.665 88.6066 183.431L104.592 185.808C116.609 181.966 132.645 176.919 136.649 176.049L131.677 152.577L137.554 150.23C139.507 154.766 141.338 159.01 143.046 162.963C143.344 165.314 143.689 167.655 144.094 169.982C148.04 190.977 152.613 203.525 163.373 205.812Z" fill="#8C2A00"/>
<path d="M169.381 152.352C169.255 151.928 169.497 151.482 169.922 151.356C170.346 151.23 170.792 151.472 170.918 151.897L176.208 169.745C176.334 170.17 176.092 170.616 175.668 170.742C175.243 170.867 174.797 170.625 174.671 170.201L169.381 152.352ZM202.863 143.632C202.42 143.629 202.064 143.267 202.067 142.825C202.071 142.382 202.432 142.026 202.875 142.029C205.106 142.046 207.199 141.721 209.159 141.055C209.578 140.912 210.033 141.136 210.176 141.556C210.318 141.975 210.094 142.43 209.675 142.572C207.542 143.297 205.27 143.65 202.863 143.632Z" fill="#482D1F"/>
<path d="M158.505 80.3219C159.317 80.0854 161.721 79.5575 163.196 77.7431C164.751 75.8905 165.515 72.9805 164.368 70.2914C163.337 67.6995 160.591 65.7404 158.04 66.0172C156.607 66.1962 155.497 66.9907 155.346 67.1112C153.59 68.4986 152.887 70.2767 152.887 70.2767L152.463 71.518C152.251 71.2408 152.048 70.9814 151.855 70.7425C147.765 66.9161 145.404 64.2613 141.261 60.4396C139.178 61.1583 125.806 65.9181 124.801 65.4696C124.801 60.0399 126.786 58.2922 127.122 57.8337C128.41 56.0044 130.294 54.2292 131.976 53.2237C135.98 51.1569 140.655 50.6405 143.292 50.7317C143.669 50.7524 144.854 50.8096 146.523 50.8782C147.007 50.8895 147.491 50.9008 148.081 50.9028C149.474 50.8882 150.548 50.9015 151.192 50.8988C159.33 50.7233 162.397 49.5967 166.634 51.4254C166.881 51.5394 167.229 51.7034 167.64 51.9294C167.921 51.1901 168.25 50.5022 168.577 49.8653C177.536 32.5053 188.418 36.4351 188.418 36.4994C188.418 36.5638 196.664 36.5638 198.773 44.9732C198.983 45.8088 200.462 51.7112 198.098 56.5779C194.927 62.9457 185.471 66.866 174.711 64.1901C174.844 66.0521 174.716 67.5773 174.661 68.3717C174.074 74.5384 170.713 78.4266 169.73 80.0682C168.419 82.2571 166.8 84.4598 164.873 86.6762C162.469 85.2321 160.629 83.5467 159.351 81.62C159.075 81.1959 158.792 80.7619 158.505 80.3219Z" fill="#482D1F"/>
</svg>
