<svg width="459" height="480" viewBox="0 0 459 480" fill="none" xmlns="http://www.w3.org/2000/svg">
<g clip-path="url(#clip0_1790_125825)">
<path d="M301.684 0H31.1754C25.5589 0 21.0059 4.55304 21.0059 10.1695V417.458C21.0059 423.074 25.5589 427.627 31.1754 427.627H301.684C307.3 427.627 311.853 423.074 311.853 417.458V10.1695C311.853 4.55304 307.3 0 301.684 0Z" fill="#F2F6FB"/>
<path d="M39.0571 20.3511C41.7249 20.3511 43.8876 18.4161 43.8876 16.0291C43.8876 13.6421 41.7249 11.707 39.0571 11.707C36.3893 11.707 34.2266 13.6421 34.2266 16.0291C34.2266 18.4161 36.3893 20.3511 39.0571 20.3511Z" fill="#FF5645"/>
<path d="M55.0743 20.3511C57.6017 20.3511 59.6506 18.4161 59.6506 16.0291C59.6506 13.6421 57.6017 11.707 55.0743 11.707C52.5469 11.707 50.498 13.6421 50.498 16.0291C50.498 18.4161 52.5469 20.3511 55.0743 20.3511Z" fill="#FFCB3D"/>
<path d="M70.5818 20.3511C72.9688 20.3511 74.9038 18.4161 74.9038 16.0291C74.9038 13.6421 72.9688 11.707 70.5818 11.707C68.1948 11.707 66.2598 13.6421 66.2598 16.0291C66.2598 18.4161 68.1948 20.3511 70.5818 20.3511Z" fill="#3ABF7C"/>
<path d="M144.056 11.707H189.311C190.153 11.707 190.836 12.39 190.836 13.2325V18.8257C190.836 19.6681 190.153 20.3511 189.311 20.3511H144.056C143.214 20.3511 142.531 19.6681 142.531 18.8257V13.2325C142.531 12.39 143.214 11.707 144.056 11.707ZM273.209 11.707H297.616C298.458 11.707 299.141 12.39 299.141 13.2325V18.8257C299.141 19.6681 298.458 20.3511 297.616 20.3511H273.209C272.366 20.3511 271.683 19.6681 271.683 18.8257V13.2325C271.683 12.39 272.366 11.707 273.209 11.707ZM239.65 11.707H263.548C264.39 11.707 265.073 12.39 265.073 13.2325V18.8257C265.073 19.6681 264.39 20.3511 263.548 20.3511H239.65C238.807 20.3511 238.124 19.6681 238.124 18.8257V13.2325C238.124 12.39 238.807 11.707 239.65 11.707ZM111.006 147.115H222.87C223.432 147.115 223.887 147.57 223.887 148.132V156.788C223.887 157.35 223.432 157.805 222.87 157.805H111.006C110.444 157.805 109.989 157.35 109.989 156.788V148.132C109.989 147.57 110.444 147.115 111.006 147.115ZM90.6665 129.807H242.192C242.754 129.807 243.209 130.262 243.209 130.824V139.48C243.209 140.042 242.754 140.497 242.192 140.497H90.6665C90.1049 140.497 89.6496 140.042 89.6496 139.48V130.824C89.6496 130.262 90.1049 129.807 90.6665 129.807ZM38.8021 186.097C38.8021 184.976 39.7174 184.067 40.8369 184.067H293.039C294.162 184.067 295.073 184.976 295.073 186.097V351.041C295.073 352.163 294.158 353.072 293.039 353.072H40.8369C39.7131 353.072 38.8021 352.162 38.8021 351.041V186.097ZM40.3925 366.1H156.703C157.61 366.1 157.939 366.195 158.27 366.372C158.602 366.549 158.862 366.81 159.039 367.141C159.216 367.472 159.311 367.801 159.311 368.708V403.199C159.311 404.106 159.216 404.435 159.039 404.766C158.862 405.097 158.602 405.358 158.27 405.535C157.939 405.712 157.61 405.807 156.703 405.807H40.3925C39.4859 405.807 39.1571 405.712 38.8257 405.535C38.4942 405.358 38.2341 405.097 38.0568 404.766C37.8796 404.435 37.7852 404.106 37.7852 403.199V368.708C37.7852 367.801 37.8796 367.472 38.0568 367.141C38.2341 366.81 38.4942 366.549 38.8257 366.372C39.1571 366.195 39.4859 366.1 40.3925 366.1ZM176.155 366.1H292.466C293.373 366.1 293.701 366.195 294.033 366.372C294.364 366.549 294.624 366.81 294.802 367.141C294.979 367.472 295.073 367.801 295.073 368.708V403.199C295.073 404.106 294.979 404.435 294.802 404.766C294.624 405.097 294.364 405.358 294.033 405.535C293.701 405.712 293.373 405.807 292.466 405.807H176.155C175.249 405.807 174.92 405.712 174.588 405.535C174.257 405.358 173.997 405.097 173.82 404.766C173.642 404.435 173.548 404.106 173.548 403.199V368.708C173.548 367.801 173.642 367.472 173.82 367.141C173.997 366.81 174.257 366.549 174.588 366.372C174.92 366.195 175.249 366.1 176.155 366.1Z" fill="#E1E5F0"/>
<path d="M209.626 241.063C217.05 241.063 223.069 235.019 223.069 227.565C223.069 220.11 217.05 214.066 209.626 214.066C202.202 214.066 196.184 220.11 196.184 227.565C196.184 235.019 202.202 241.063 209.626 241.063Z" fill="#F2F6FB"/>
<path d="M166.685 114.996V117.03C169.693 117.03 172.649 116.637 175.5 115.87L174.971 113.906C172.292 114.627 169.514 114.996 166.685 114.996Z" fill="#474BFF"/>
<path d="M182.681 110.684L183.706 112.44C186.276 110.94 188.639 109.106 190.732 106.989L189.285 105.559C187.318 107.549 185.097 109.273 182.681 110.684Z" fill="#474BFF"/>
<path d="M194.335 98.8951L196.103 99.9001C197.572 97.3158 198.694 94.5461 199.437 91.6542L197.467 91.1482C196.769 93.8648 195.715 96.4669 194.335 98.8951Z" fill="#474BFF"/>
<path d="M198.462 82.8072L200.496 82.7816C200.458 79.7758 200.027 76.8244 199.222 73.9824L197.265 74.5367C198.022 77.2071 198.427 79.9807 198.462 82.8072Z" fill="#474BFF"/>
<path d="M193.941 66.8653L195.684 65.8173C194.151 63.2669 192.286 60.928 190.143 58.863L188.732 60.3277C190.747 62.2691 192.5 64.468 193.941 66.8653Z" fill="#474BFF"/>
<path d="M182.005 55.3664L182.987 53.5852C180.385 52.1506 177.601 51.0639 174.699 50.3586L174.219 52.3349C176.945 52.9976 179.56 54.0184 182.005 55.3664Z" fill="#474BFF"/>
<path d="M165.866 51.4473L165.815 49.4141C162.81 49.49 159.864 49.9591 157.03 50.8017L157.61 52.7512C160.272 51.9595 163.041 51.5187 165.866 51.4473Z" fill="#474BFF"/>
<path d="M149.984 56.1742L148.913 54.4447C146.383 56.0109 144.068 57.9057 142.031 60.0755L143.513 61.4677C145.429 59.4277 147.605 57.6464 149.984 56.1742Z" fill="#474BFF"/>
<path d="M138.639 68.2583L136.845 67.2995C135.444 69.9199 134.394 72.7174 133.726 75.6292L135.709 76.0838C136.336 73.3483 137.323 70.7203 138.639 68.2583Z" fill="#474BFF"/>
<path d="M134.929 84.4474L132.896 84.5247C133.011 87.5266 133.518 90.4674 134.398 93.2908L136.34 92.6856C135.513 90.0329 135.036 87.2696 134.929 84.4474Z" fill="#474BFF"/>
<path d="M139.861 100.265L138.145 101.358C139.744 103.868 141.668 106.158 143.864 108.167L145.237 106.667C143.173 104.778 141.363 102.625 139.861 100.265Z" fill="#474BFF"/>
<path d="M152.088 111.453L151.153 113.259C153.791 114.626 156.601 115.64 159.522 116.27L159.951 114.282C157.207 113.69 154.567 112.737 152.088 111.453Z" fill="#474BFF"/>
<path d="M96.3614 311.391C84.4631 311.391 76.5309 306.713 70.8359 301.119L77.8529 291.662C82.0224 295.831 87.4122 299.289 94.3275 299.289C102.26 299.289 107.649 294.306 107.649 285.357C107.649 276.611 102.565 271.73 95.0393 271.73C90.5648 271.73 88.1241 272.848 83.7512 275.696L76.8359 271.221L78.9715 234.713H119.243V247.221H91.8868L90.4631 263.187C93.4122 261.865 96.0563 261.153 99.5139 261.153C112.124 261.153 122.7 268.577 122.7 285.052C122.7 301.73 110.192 311.391 96.3614 311.391Z" fill="#474BFF"/>
<path d="M168.447 311.391C153.091 311.391 142.922 298.069 142.922 272.035C142.922 246.102 153.091 233.391 168.447 233.391C183.701 233.391 193.871 246.102 193.871 272.035C193.871 298.069 183.701 311.391 168.447 311.391ZM168.447 299.696C174.956 299.696 179.735 293.187 179.735 272.035C179.735 250.984 174.956 244.882 168.447 244.882C161.939 244.882 157.057 250.984 157.057 272.035C157.057 293.187 161.939 299.696 168.447 299.696Z" fill="#474BFF"/>
<path d="M238.601 311.391C223.245 311.391 213.075 298.069 213.075 272.035C213.075 246.102 223.245 233.391 238.601 233.391C253.855 233.391 264.025 246.102 264.025 272.035C264.025 298.069 253.855 311.391 238.601 311.391ZM238.601 299.696C245.109 299.696 249.889 293.187 249.889 272.035C249.889 250.984 245.109 244.882 238.601 244.882C232.092 244.882 227.211 250.984 227.211 272.035C227.211 293.187 232.092 299.696 238.601 299.696Z" fill="#474BFF"/>
<path d="M164.054 89.2556L162.954 70.5899L162.754 63.5586H170.106L169.906 70.5899L168.855 89.2556H164.054ZM166.405 102.711C163.804 102.711 161.854 100.637 161.854 97.855C161.854 95.0729 163.804 93.0495 166.405 93.0495C169.056 93.0495 171.006 95.0729 171.006 97.855C171.006 100.637 169.056 102.711 166.405 102.711Z" fill="#474BFF"/>
</g>
<path d="M456.554 480.002H404.435C403.215 480.002 402.147 479.122 402.147 478.066V477.362C402.147 476.306 403.164 475.426 404.435 475.426H456.554C457.774 475.426 458.842 476.306 458.842 477.362V478.066C458.842 479.122 457.825 480.002 456.554 480.002ZM336.808 475.426C338.072 475.426 339.096 476.45 339.096 477.714C339.096 478.978 338.072 480.002 336.808 480.002H253.927C252.663 480.002 251.639 478.978 251.639 477.714C251.639 476.45 252.663 475.426 253.927 475.426H336.808Z" fill="#E42FB1"/>
<path d="M456.831 475.441C456.74 475.431 456.647 475.426 456.554 475.426H404.61L408.72 449.487L445.127 444.555L456.831 475.441ZM337.111 475.446C337.012 475.433 336.911 475.426 336.808 475.426H254.287C254.232 475.147 254.204 474.797 254.212 474.342C254.269 473.987 254.276 473.581 254.385 473.176C255.038 470.746 255.829 469.132 258.142 467.698C260.456 466.264 262.818 464.983 265.278 463.856C274.354 459.59 277.455 459.644 283.423 455.731C285.892 454.095 288.163 452.203 290.284 450.155C291.698 448.789 294.584 446.571 298.944 443.5L338.146 444.378L337.111 475.446Z" fill="#474961"/>
<path d="M392.287 163.84C396.157 171.374 406.632 194.753 415.983 242.345C416.753 246.293 417.492 250.137 418.202 253.869L418.273 253.783C431.088 302.07 439.984 335.875 444.96 355.196C450.07 375.041 442.983 374.731 446.858 391.426C449.093 401.052 456.578 408.792 456.514 418.815C456.504 420.398 456.542 423.563 456.628 428.312C456.783 436.792 450.586 444.054 442.187 445.234L408.262 450.002C399.085 451.292 390.6 444.898 389.311 435.721C389.299 435.636 389.287 435.552 389.277 435.467C388.362 428.146 387.898 423.795 387.887 422.411C387.862 419.545 387.826 416.935 387.771 414.557C385.817 406.558 383.78 398.233 382.141 391.522C379.929 388.105 377.327 383.382 375.276 375.74C373.927 370.713 370.86 351.146 366.075 317.04C365.984 316.582 365.809 315.172 365.551 312.809L358.853 288.159C358.574 291.038 358.289 293.951 358.001 296.889C358.592 337.742 358.576 360.691 357.955 365.738C355.998 381.622 350.145 385.995 349.974 390.986C349.807 395.876 350.55 403.001 351.962 413.71C352.143 415.081 352.29 419.456 352.403 426.832C352.404 426.917 352.405 427.003 352.405 427.088C352.405 434.515 347.579 440.816 340.892 443.025C336.685 446.854 329.912 443.94 312.126 444.062C312.126 444.062 309.389 444.086 305.775 443.868L301.367 443.868C298.757 443.868 296.274 443.269 294.056 442.194C291.954 441.605 290.214 440.83 289.245 439.813C288.436 438.939 287.925 437.947 287.925 437.947C287.684 437.406 287.511 436.874 287.386 436.37C285.979 434.254 285.037 431.792 284.711 429.12C284.136 424.406 283.733 421.266 283.502 419.699C282.044 409.783 288.379 401.077 289.252 391.234C290.766 374.162 283.791 375.455 286.09 355.092C288.308 335.45 292.504 312.778 298.678 287.074C302.249 246.592 306.949 201.106 312.126 185.821C312.212 185.548 315.442 174.714 320.111 167.066C320.254 167.219 320.401 167.367 320.554 167.508C321.139 168.057 321.721 168.454 322.3 168.749C323.462 169.441 324.424 169.678 324.424 169.678C324.424 169.678 324.472 169.677 324.521 169.727C324.521 169.727 355.695 177.523 386.626 168.643L386.721 168.591C386.721 168.591 387.674 168.32 388.811 167.588C389.332 167.274 389.947 166.805 390.512 166.287C391.221 165.594 391.806 164.76 392.287 163.84Z" fill="#29DBA5"/>
<path opacity="0.176986" d="M326.78 170.225L343.057 230.239L358.838 288.32C358.563 291.147 358.284 294.006 358.001 296.889C358.592 337.742 358.576 360.691 357.955 365.738C355.998 381.622 350.145 385.995 349.974 390.986C349.807 395.876 350.55 403.001 351.962 413.71C352.143 415.081 352.29 419.456 352.403 426.832C352.404 426.917 352.405 427.003 352.405 427.088C352.405 434.515 347.579 440.816 340.892 443.025C336.685 446.854 329.912 443.94 312.126 444.062C312.126 444.062 309.389 444.086 305.775 443.868L301.367 443.868C298.757 443.868 296.274 443.269 294.056 442.194C291.954 441.605 290.214 440.83 289.245 439.813C288.436 438.939 287.925 437.947 287.925 437.947C287.684 437.406 287.511 436.874 287.386 436.37C285.979 434.254 285.037 431.792 284.711 429.12C284.136 424.406 283.733 421.266 283.502 419.699C282.044 409.783 288.379 401.077 289.252 391.234C290.766 374.162 283.791 375.455 286.09 355.092C288.308 335.45 292.504 312.778 298.678 287.074C302.249 246.592 306.949 201.106 312.126 185.821C312.212 185.548 315.442 174.714 320.111 167.066C320.254 167.219 320.401 167.367 320.554 167.508C321.139 168.057 321.72 168.454 322.3 168.749C323.462 169.441 324.424 169.678 324.424 169.678C324.424 169.678 324.472 169.677 324.521 169.727C324.521 169.727 325.317 169.926 326.78 170.225Z" fill="#444444"/>
<path d="M392.828 100.011C392.886 100.595 392.944 101.199 393 101.821L393.002 101.974L393.142 104.463C393.961 132.165 394.369 144.618 394.598 149.496C394.598 149.496 394.559 150.005 394.621 150.767C394.755 153.002 394.964 162.203 390.725 166.346C390.16 166.864 389.545 167.332 389.024 167.647C387.887 168.378 386.934 168.649 386.934 168.649L386.839 168.702C355.908 177.582 324.734 169.786 324.734 169.786C324.734 169.786 323.479 169.507 322.317 168.816C321.737 168.521 321.122 168.094 320.538 167.544C316.205 163.552 316.322 154.371 316.379 152.132C316.366 151.421 316.356 150.861 316.356 150.861C316.411 146.209 316.392 134.909 316.265 110.394C304.12 109.267 299.204 105.764 301.515 99.8849C306.765 86.5296 310.243 73.7147 331.058 72.234C336.165 69.6876 341.741 68.8351 345.623 68.5754C347.872 68.4345 349.549 68.4561 350.22 68.4952C350.507 68.4902 350.891 68.5343 351.61 68.5726C352.329 68.6109 353.144 68.6476 354.055 68.6825C354.964 68.6158 355.777 68.5508 356.494 68.4874C357.212 68.424 357.546 68.3673 357.881 68.3615C358.599 68.2981 360.226 68.2188 362.478 68.2812C363.015 68.2984 363.585 68.3253 364.182 68.3652C364.482 68.2961 364.788 68.2281 365.098 68.1612C386.491 63.5441 393.255 75.2334 401.941 86.9883C405.418 91.6933 402.38 96.034 392.828 100.011Z" fill="#B143E5"/>
<path opacity="0.176986" d="M330.734 72.2305C327.762 73.7286 324.955 75.8047 322.74 78.6765C321.757 79.9651 320.497 81.9196 319.541 84.7333C319.404 85.1425 319.267 85.5009 319.13 85.9101C318.81 86.7802 318.124 88.623 317.536 90.6166C316.905 92.8653 316.405 97.1458 316.077 103.102L316.08 103.254L316.028 105.747C316.036 107.317 316.044 108.838 316.052 110.311C304.207 109.144 299.427 105.654 301.713 99.8417C306.919 86.5985 310.382 73.8867 330.734 72.2305Z" fill="#444444"/>
<path d="M389.316 224.398C388.891 224.727 388.64 224.874 388.64 224.874C381.966 223.753 391.51 199.031 394.354 192.033L370.395 106.327C385.269 103.182 395.08 99.7544 399.829 96.0436C412.746 148.02 419.726 181.356 420.768 196.053C420.848 196.519 420.897 197.018 420.914 197.551C421.192 206.104 418.35 219.192 412.388 236.818C412.341 236.921 396.835 244.535 385.925 238.098L389.316 224.398ZM324.068 23.7469C324.09 23.7185 324.111 23.6898 324.132 23.6607C328.595 18.659 336.811 18.8068 340.51 19.6047C340.96 19.7031 342.557 20.0754 344.867 20.4716C346.121 20.7056 347.132 20.8119 347.734 20.9263C355.237 22.0216 358.316 21.425 361.896 23.8464C362.567 24.2748 364.089 25.3551 365.319 27.2738C368.788 32.7 367.147 39.0718 366.692 40.9669C365.176 46.6361 361.466 49.8251 360.301 51.1853C359.433 52.2138 358.23 53.362 357.059 54.3992L358.192 70.8101C358.204 71.1658 358.064 71.5269 357.765 71.69C356.472 72.5492 354.624 73.5295 352.304 74.1193C348.12 75.2321 344.487 74.6467 342.433 74.1079C342.023 74.0204 341.704 73.6245 341.69 73.218L341.076 62.4563C340.631 62.5726 340.156 62.6932 339.649 62.8192C335.181 63.9856 335.45 63.8605 335.136 63.9298C331.865 64.404 329.145 64.0159 328.65 63.8616C326.845 63.5185 325.083 61.7995 323.635 59.0398C321.67 55.3566 320.16 49.7784 319.723 43.2392C319.616 42.3077 319.661 41.3921 319.706 40.4766L320.455 31.4035C320.617 29.3754 321.285 27.4005 322.488 25.6863C322.977 24.9197 323.451 24.3049 324.015 23.8017C324.033 23.7834 324.05 23.7651 324.068 23.7469ZM301.558 104.866C303.175 107.785 308.077 109.625 316.265 110.385C316.354 127.535 316.39 138.218 316.385 144.682C304.174 159.72 296.004 157.374 296.004 157.374C290.313 157.62 285.962 155.033 284.32 154.039C269.995 145.4 242.802 97.3214 238.112 88.8992C231.921 88.0512 226.14 86.4243 220.772 84.0187C212.209 80.1822 208.759 76.5422 210.421 73.0989L254.301 75.932L254.422 75.8486L292.477 115.9C296.466 111.663 299.175 108.202 301.558 104.866Z" fill="#F6B89E"/>
<path opacity="0.2" d="M301.722 104.865C303.339 107.784 308.242 109.624 316.429 110.384C316.518 127.534 316.554 138.217 316.549 144.681C304.338 159.719 296.168 157.373 296.168 157.373C290.478 157.619 286.126 155.032 284.484 154.038C270.16 145.399 242.966 97.3204 238.276 88.8982C232.085 88.0501 226.305 86.4233 220.936 84.0177C212.374 80.1812 208.923 76.5412 210.585 73.0978L254.466 75.931L254.586 75.8476L292.642 115.899C296.63 111.662 299.339 108.201 301.722 104.865Z" fill="#8C2A00"/>
<path d="M340.252 62.634L347.743 60.2436L341.615 69.6076L340.252 62.634Z" fill="#482D1F"/>
<path d="M358.417 41.6955C358.471 40.4634 357.888 39.1532 357.226 37.9893C355.847 35.5437 352.945 33.9605 350.433 34.5145C349.02 34.8261 347.998 35.7924 347.886 35.8829C346.34 37.4588 345.845 39.2473 345.845 39.2473L345.597 40.4346C339.957 38.2829 337.652 32.1008 337.652 32.1008C337.652 32.1008 322.035 26.6354 321.38 26.2533C321.634 25.7448 321.634 25.7448 321.879 25.4122C326.792 18.7327 336.442 17.5025 340.192 18.3056C340.692 18.4094 342.289 18.7817 344.65 19.1832C345.954 19.4226 346.966 19.5289 347.567 19.6432C355.222 20.7545 358.434 21.142 362.065 23.5687C362.735 23.9971 364.309 25.0827 365.538 27.0015C369.375 32.8242 368.234 40.74 367.569 42.204C366.734 45.2998 360.959 50.5938 360.959 50.5938C358.266 50.19 358.417 46.1293 358.417 41.6955ZM317.986 37.503C317.484 37.3749 317.366 36.7068 317.74 36.3699C318.218 35.9877 319.052 35.624 320.068 35.6772C322.149 35.7864 324.312 37.2744 321.944 37.7614C320.554 38.045 318.94 37.7567 317.986 37.503ZM328.428 38.4067C327.925 38.2785 327.807 37.6104 328.232 37.2762C328.711 36.894 329.544 36.5303 330.611 36.5862C332.693 36.6953 334.852 38.2342 332.487 38.6703C330.993 38.9994 329.382 38.6603 328.428 38.4067Z" fill="#482D1F"/>
<path d="M322.187 41.7087C322.091 42.5693 321.864 43.983 321.33 44.4642C320.426 45.1806 319.442 42.5832 320.185 41.0437C320.474 40.3969 320.834 40.314 321.238 40.386C321.842 40.5195 322.219 41.0994 322.187 41.7087ZM331.281 42.0835C331.287 42.9494 331.212 44.3711 330.673 44.9539C329.866 45.7772 328.572 43.2653 329.165 41.667C329.402 41.0176 329.766 40.8839 330.172 40.9052C330.781 40.9371 331.263 41.4715 331.281 42.0835Z" fill="#482D1F"/>
<path d="M326.573 51.0046C326.934 51.0875 327.81 51.2962 327.992 51.8467C327.997 51.9483 328.056 52.098 328.01 52.2022C327.826 52.5683 327.206 52.3971 326.289 52.3942C324.659 52.3778 323.347 52.5993 323.347 52.5993C323.347 52.5993 323.649 51.5651 323.887 51.2472C324.355 50.4589 326.006 50.8815 326.573 51.0046Z" fill="#482D1F"/>
<path d="M323.654 41.8878L323.663 41.8175L323.656 41.8523L323.654 41.8878ZM322.617 47.2108C322.491 47.7785 322.906 48.3641 323.479 48.4909C323.605 48.5093 323.605 48.5093 323.687 48.5199C324.54 48.6307 325.075 48.6833 325.994 48.7315C326.275 48.7462 326.514 48.5307 326.529 48.2503C326.544 47.9699 326.328 47.7306 326.048 47.7159C325.157 47.6692 324.647 47.6191 323.818 47.5114L323.655 47.4902C323.653 47.4878 323.61 47.427 323.612 47.4174L324.661 42.0112L324.67 41.941L324.827 38.9451C324.842 38.6647 324.626 38.4254 324.346 38.4107C324.065 38.396 323.826 38.6114 323.811 38.8919L323.656 41.8523L322.617 47.2108Z" fill="#482D1F"/>
<path d="M358.481 41.3061C358.557 42.8122 358.12 44.3973 357.311 45.6238C356.322 47.1726 355.078 47.9432 353.519 48.473C353.253 48.5634 353.111 48.8522 353.201 49.1181C353.292 49.384 353.581 49.5262 353.847 49.4358C354.532 49.2029 355.081 48.9662 355.731 48.564C356.687 47.9716 357.518 47.1893 358.164 46.1774C359.088 44.7771 359.583 42.9781 359.496 41.255C359.482 40.9745 359.244 40.7586 358.963 40.7727C358.683 40.7868 358.467 41.0256 358.481 41.3061Z" fill="#482D1F"/>
<path d="M397.334 221.855C397.415 221.442 397.815 221.172 398.229 221.253C398.642 221.333 398.912 221.734 398.831 222.147C398.325 224.744 397.868 226.749 396.799 231.204C395.736 235.638 395.282 237.629 394.781 240.198C394.7 240.611 394.3 240.881 393.886 240.8C393.473 240.72 393.203 240.319 393.284 239.906C393.79 237.309 394.248 235.304 395.316 230.849C396.379 226.415 396.834 224.424 397.334 221.855ZM407.647 219.618C407.753 219.21 408.17 218.966 408.578 219.072C408.985 219.178 409.23 219.594 409.124 220.002C408.397 222.794 407.883 224.972 406.777 229.83C405.667 234.703 405.15 236.891 404.419 239.703C404.313 240.111 403.896 240.356 403.488 240.25C403.081 240.144 402.836 239.727 402.942 239.319C403.669 236.527 404.183 234.35 405.289 229.491C406.399 224.618 406.916 222.43 407.647 219.618Z" fill="#482D1F"/>
<defs>
<clipPath id="clip0_1790_125825">
<rect width="332.542" height="427.627" fill="white" transform="translate(0.158203)"/>
</clipPath>
</defs>
</svg>
