<svg width="544" height="480" viewBox="0 0 544 480" fill="none" xmlns="http://www.w3.org/2000/svg">
<g clip-path="url(#clip0_1790_125783)">
<path d="M293.204 475.053L293.21 475.374C293.175 476.604 292.122 477.585 290.827 477.607L201.043 477.466C199.747 477.435 198.716 476.437 198.694 475.208L198.689 474.887C198.723 473.657 199.776 472.676 201.072 472.654L290.799 472.796C292.15 472.773 293.182 473.77 293.204 475.053ZM54.305 477.073L54.174 477.101L1.65091 436.002C0.689906 435.254 0.47635 433.81 1.27718 432.902L1.43735 432.634C1.91785 432.046 2.66529 431.726 3.41274 431.779C3.83985 431.779 4.21357 431.94 4.58729 432.207L56.8657 472.667L85.4747 472.731C86.7025 472.71 87.681 473.708 87.7558 474.937L87.7614 475.257C87.7295 476.487 86.732 477.467 85.5043 477.489L54.212 477.394C54.243 477.287 54.274 477.181 54.305 477.073Z" fill="#4FBE89"/>
<path d="M292.446 473.588C292.016 473.177 291.417 472.93 290.737 472.942L201.01 472.8C200.867 472.802 200.727 472.816 200.591 472.841L204.193 439.592L245.2 439.475C250.133 442.703 253.342 445.035 254.826 446.47C257.053 448.623 259.437 450.613 262.03 452.332C268.296 456.446 271.552 456.389 281.082 460.873C283.666 462.058 286.145 463.404 288.574 464.912C291.004 466.42 291.834 468.116 292.519 470.67C292.634 471.096 292.641 471.524 292.701 471.897C292.716 472.739 292.614 473.244 292.446 473.588ZM4.52148 432.35L23.2076 406.77L55.2409 431.09L56.2661 434.404C60.0033 447.518 62.0321 454.431 62.3524 455.144C62.7377 455.978 63.1371 456.749 63.5572 457.499C66.4599 458.682 69.7562 459.839 74.792 462.36C77.3547 463.589 79.8106 464.979 82.213 466.529C84.6155 468.079 85.4164 469.79 86.057 472.355C86.1108 472.571 86.1375 472.786 86.1576 472.995C85.9249 472.914 85.6744 472.873 85.4127 472.877L56.8037 472.813L4.52527 432.353C4.52401 432.352 4.52275 432.351 4.52148 432.35Z" fill="#474961"/>
<path d="M161.896 173.856C162.055 173.878 162.215 173.904 162.375 173.934C163.92 174.226 165.362 174.916 166.561 175.934C212.772 215.195 240.104 247.668 248.555 273.354C253.347 287.92 257.578 325.398 261.246 385.789C261.926 396.986 253.412 406.616 242.228 407.297C241.992 407.311 241.756 407.321 241.52 407.327L207.87 408.199C196.841 408.484 187.606 399.893 187.081 388.86L182.595 294.584C175.219 286.778 168.792 279.901 163.314 273.954C162 281.128 156.694 298.837 156.694 298.837C156.694 298.837 128.978 349.099 89.9331 398.963L88.4326 400.965C82.073 409.448 70.2645 411.604 61.3236 405.914L36.2138 389.934C26.7578 383.916 23.9647 371.363 29.9754 361.896C30.2253 361.502 30.4887 361.117 30.7652 360.742L86.6854 284.773C88.0183 254.655 90.6572 228.306 94.602 205.726C100.519 171.857 144.813 172.589 161.577 173.146C161.685 173.378 161.791 173.615 161.896 173.856Z" fill="#A24AC1"/>
<path opacity="0.176986" d="M161.861 173.848C162.032 173.87 162.203 173.897 162.375 173.93C163.92 174.222 165.363 174.912 166.561 175.93C212.773 215.191 240.104 247.664 248.555 273.35C253.347 287.916 257.578 325.394 261.246 385.785C261.927 396.983 253.412 406.612 242.228 407.293C241.992 407.307 241.756 407.317 241.52 407.323L207.87 408.195C196.841 408.48 187.606 399.89 187.081 388.856L182.595 294.58C175.224 286.778 168.8 279.905 163.324 273.961C165.745 260.71 165.735 248.803 166.675 224.624C167.62 200.302 166.015 183.376 161.861 173.848Z" fill="#444444"/>
<path d="M193.81 48.1438L527.267 25.319L541.91 240.209C542.312 246.099 537.867 251.2 531.983 251.603L219.834 272.969C213.95 273.372 208.855 268.924 208.453 263.034L193.81 48.1438Z" fill="#F2F6FB"/>
<path d="M211.637 70.5761L221.632 69.8919C222.22 69.8517 222.729 70.2965 222.77 70.8855L223.038 74.8281C223.078 75.4171 222.634 75.9272 222.046 75.9675L212.051 76.6516C211.462 76.6919 210.953 76.2471 210.913 75.6581L210.644 71.7155C210.604 71.1265 211.048 70.6163 211.637 70.5761ZM469.308 52.9387L512.649 49.9721C513.237 49.9319 513.746 50.3767 513.787 50.9657L514.055 54.9083C514.095 55.4973 513.651 56.0074 513.063 56.0477L469.722 59.0143C469.134 59.0546 468.624 58.6097 468.584 58.0208L468.315 54.0781C468.275 53.4891 468.72 52.979 469.308 52.9387ZM387.459 58.5412L430.8 55.5746C431.388 55.5343 431.898 55.9791 431.938 56.5681L432.207 60.5107C432.247 61.0997 431.802 61.6098 431.214 61.6501L387.873 64.6167C387.285 64.657 386.775 64.2122 386.735 63.6232L386.467 59.6806C386.427 59.0916 386.871 58.5815 387.459 58.5412ZM438.994 55.0137L461.114 53.4996C461.703 53.4593 462.212 53.9041 462.252 54.4931L462.521 58.4358C462.561 59.0247 462.117 59.5349 461.528 59.5751L439.408 61.0893C438.819 61.1295 438.31 60.6847 438.27 60.0957L438.001 56.1531C437.961 55.5641 438.405 55.054 438.994 55.0137Z" fill="#D8DEED"/>
<path d="M285.226 236.997C288.324 236.785 290.668 234.144 290.46 231.099C290.253 228.054 287.573 225.758 284.475 225.97C281.376 226.182 279.033 228.822 279.24 231.867C279.448 234.912 282.128 237.209 285.226 236.997Z" fill="#F2F6FB"/>
<path d="M279.975 99.3782L271.759 99.9405C270.93 99.9973 270.303 100.717 270.36 101.547C270.416 102.377 271.135 103.005 271.964 102.948L280.18 102.386C281.01 102.329 281.636 101.61 281.58 100.779C281.523 99.9486 280.805 99.3214 279.975 99.3782Z" fill="#F2F6FB"/>
<path d="M349.47 126.758L486.785 117.359C487.373 117.319 487.883 117.764 487.923 118.353L488.606 128.371C488.646 128.96 488.201 129.47 487.613 129.51L350.298 138.909C349.71 138.95 349.2 138.505 349.16 137.916L348.477 127.898C348.437 127.309 348.882 126.798 349.47 126.758ZM350.816 146.504L435.081 140.736C435.669 140.696 436.178 141.14 436.219 141.729L436.901 151.748C436.941 152.337 436.497 152.847 435.909 152.887L351.644 158.655C351.055 158.695 350.546 158.25 350.506 157.661L349.823 147.643C349.783 147.054 350.227 146.544 350.816 146.504ZM352.161 166.249L468.256 158.303C468.844 158.262 469.354 158.707 469.394 159.296L470.077 169.314C470.117 169.903 469.673 170.413 469.084 170.454L352.989 178.4C352.401 178.441 351.891 177.996 351.851 177.407L351.168 167.389C351.128 166.8 351.573 166.289 352.161 166.249Z" fill="#E1E5F0"/>
<path d="M461.188 99.2736L348.124 107.013C347.536 107.053 347.092 107.563 347.132 108.152L347.814 118.17C347.855 118.759 348.364 119.204 348.953 119.164L462.016 111.425C462.604 111.384 463.049 110.874 463.009 110.285L462.326 100.267C462.286 99.6782 461.776 99.2334 461.188 99.2736Z" fill="#D8DEED"/>
<path d="M192.829 33.7471C192.427 27.857 196.872 22.7557 202.761 22.3526L514.9 0.986961C520.787 0.584031 525.884 5.03448 526.286 10.9224L527.339 26.3854L193.882 49.2102L192.829 33.7471Z" fill="#E1E5F0"/>
<path d="M210.722 41.0933C213.811 40.8819 216.144 38.2038 215.934 35.1116C215.723 32.0194 213.048 29.6841 209.959 29.8956C206.87 30.107 204.537 32.7851 204.748 35.8773C204.958 38.9694 207.633 41.3047 210.722 41.0933Z" fill="#FF5645"/>
<path d="M229.366 39.8172C232.455 39.6057 234.788 36.9276 234.578 33.8354C234.367 30.7433 231.692 28.408 228.603 28.6194C225.514 28.8309 223.181 31.509 223.391 34.6011C223.602 37.6933 226.277 40.0286 229.366 39.8172Z" fill="#FFCB3D"/>
<path d="M248.542 38.5045C251.631 38.2931 253.965 35.615 253.754 32.5228C253.543 29.4307 250.868 27.0954 247.779 27.3068C244.69 27.5182 242.357 30.1964 242.568 33.2885C242.778 36.3807 245.453 38.716 248.542 38.5045Z" fill="#3ABF7C"/>
<path d="M302.271 190.487L298.875 141.974C298.554 137.389 298.48 130.215 298.365 125.509L297.939 125.539C296.214 129.946 294.389 134.467 292.451 138.889L281.681 159.362L323.969 156.389L324.812 168.437L267.292 172.481L266.538 161.712L292.488 111.885L311.341 110.56L316.864 189.462L302.271 190.487Z" fill="#474BFF"/>
<path d="M371.49 187.122C355.406 188.252 343.776 175.033 341.865 147.738C339.962 120.549 349.681 106.472 365.766 105.341C381.744 104.218 393.328 116.797 395.232 143.986C397.142 171.282 387.468 185.998 371.49 187.122ZM370.632 174.86C377.449 174.381 381.978 167.205 380.425 145.027C378.88 122.956 373.426 116.911 366.609 117.39C359.792 117.869 355.127 124.626 356.672 146.697C358.224 168.875 363.814 175.339 370.632 174.86Z" fill="#474BFF"/>
<path d="M449.235 180.156L445.839 131.643C445.518 127.058 445.444 119.884 445.329 115.178L444.902 115.208C443.177 119.615 441.353 124.136 439.414 128.558L428.644 149.031L470.933 146.058L471.776 158.106L414.255 162.15L413.502 151.381L439.451 101.554L458.305 100.229L463.828 179.13L449.235 180.156Z" fill="#474BFF"/>
<path d="M93.6361 130.989L87.7309 132.082C87.51 132.123 87.2853 132.141 87.0608 132.134C85.2923 132.086 83.898 130.611 83.9465 128.841C84.4189 111.614 86.1533 100.375 89.1498 95.1229C90.0269 93.5855 91.157 92.3464 92.4641 91.3869C97.8079 86.3091 106.901 83.4469 117.745 81.5993L120.742 81.0702C125.377 80.283 129.842 80.3421 133.988 81.0887C139.161 81.2867 145.528 82.4885 151.319 86.3105C152.238 86.9082 154.198 88.1904 156.36 90.3056C156.36 90.3056 160.602 94.3872 166.139 108.282C166.781 109.929 167.714 112.665 168.937 116.491C169.387 117.896 168.613 119.401 167.209 119.851C167.113 119.882 167.016 119.907 166.917 119.927L160.203 121.266L161.972 143.103C162.021 143.691 162.061 144.227 162.163 144.806C162.593 147.553 162.608 151.024 160.838 154.213C158.302 158.894 154.274 165.576 133.206 169.078C113.61 172.32 107.911 167.356 104.051 163.912C101.29 161.469 100.131 157.657 99.6145 155.034C99.5125 154.455 99.3672 153.938 99.2127 153.368L93.6361 130.989Z" fill="#52BD8A"/>
<path opacity="0.176986" d="M133.894 81.0812C144.29 82.9268 152.687 89.0935 156.734 97.0858C158.058 99.6746 158.735 102.595 158.92 105.493L160.198 121.268L166.89 119.963C166.989 119.944 167.087 119.919 167.183 119.888C168.589 119.444 169.369 117.943 168.925 116.535C167.71 112.682 166.782 109.932 166.139 108.283C160.602 94.3883 156.359 90.3066 156.359 90.3066C154.198 88.1915 152.237 86.9093 151.319 86.3116C145.436 82.4292 139.079 81.2504 133.894 81.0812V81.0812Z" fill="#444444"/>
<path d="M205.92 408.079C206.515 408.116 207.117 408.127 207.724 408.112L241.375 407.24C241.61 407.234 241.846 407.224 242.082 407.21C244.076 407.088 245.985 406.682 247.773 406.034L245.021 439.447H203.97L205.92 408.079ZM67.8246 408.553L55.2423 431.093L23.209 406.772L34.4092 388.672C34.9369 389.087 35.4899 389.479 36.0679 389.847L61.1776 405.827C63.2716 407.159 65.5229 408.061 67.8246 408.553ZM186.506 160.284L194.264 161.146C197.57 159.403 227.679 143.762 229.643 151.348C229.643 151.348 229.512 151.624 229.207 152.098L243.227 147.293C250.958 158.128 244.413 175.064 244.309 175.123C226.419 182.981 212.989 187.157 204.017 187.649C202.982 187.706 202.056 187.64 201.24 187.451C201.226 187.549 201.212 187.648 201.198 187.747C172.894 191.146 143.222 189.888 112.18 183.972C104.712 182.549 96.4499 165.145 87.3943 131.762C87.4819 131.753 87.5692 131.741 87.6559 131.725L122.5 125.277C122.811 125.219 123.104 125.118 123.373 124.981L131.957 154.223L158.341 157.154C159.206 155.989 159.834 154.866 160.391 153.838C162.161 150.649 162.146 147.178 161.716 144.432C161.614 143.853 161.574 143.317 161.525 142.729L160.151 121.07L166.558 120.001C166.7 119.976 167.626 119.734 167.626 119.734L174.577 133.712C180.553 130.4 198.057 109.845 198.057 109.845C198.057 109.845 198.887 121.038 200.738 145.624L186.506 160.284ZM129.566 75.0425L130.177 80.1239C141.011 80.5671 145.936 84.784 147.595 86.6227C147.595 86.6227 136.164 88.7124 113.302 92.8918C107.137 87.9429 97.9608 86.8208 92.2601 91.1254C95.4254 88.0559 100.892 85.414 108.661 83.1999C110.694 82.6206 112.629 82.1341 114.471 81.7308L112.48 62.7769C112.364 62.7113 112.248 62.6418 112.132 62.5681C110.05 61.1899 108.479 58.6232 108.778 55.6101C109.029 52.8311 111.108 49.0074 113.638 48.5499C115.058 48.2796 119.022 49.4862 118.742 48.2332C118.556 47.3979 117.462 42.969 115.463 34.9466C115.293 34.1066 115.784 33.2556 116.609 33.0342C118.479 32.5878 120.329 32.4789 122.165 31.4885C122.371 31.4332 122.564 31.3262 122.77 31.2708C124.468 30.594 133.921 26.6746 141.139 32.3747C141.755 32.8182 142.361 33.4303 142.981 34.0941C144.445 35.6383 145.41 37.5929 145.86 39.6858L147.92 49.0384C148.066 49.9954 148.263 50.9386 148.306 51.9233C149.09 63.9424 146.151 73.1977 141.902 74.6696C141.4 74.8595 138.629 75.6582 135.145 75.6521C134.808 75.6318 135.107 75.7175 130.306 75.1242C130.052 75.0969 129.806 75.0697 129.566 75.0425Z" fill="#FEBDA1"/>
<path d="M148.409 45.2346C146.914 44.7001 145.206 44.8604 144.191 45.0208C143.657 45.1277 143.444 45.7691 143.817 46.1433C144.298 46.5709 145.099 47.1054 146.167 47.1589C148.355 47.2658 150.758 45.9829 148.409 45.2346Z" fill="#482D1F"/>
<path opacity="0.2" d="M186.064 160.336L200.703 145.461C198.853 120.825 198.057 109.844 198.057 109.844C198.057 109.844 180.542 130.318 174.566 133.63L167.625 119.732C167.625 119.732 166.824 120 164.956 120.267L160.151 121.069L161.514 143.051C161.564 143.639 161.604 144.175 161.706 144.754C162.135 147.5 162.15 150.971 160.381 154.16C159.857 155.127 159.27 156.179 158.482 157.271L186.064 160.336Z" fill="#8C2A00"/>
<path d="M227.568 160.884C230.209 160.124 232.25 159.466 236.79 157.946C241.352 156.419 243.408 155.756 246.078 154.988C246.503 154.866 246.947 155.112 247.069 155.538C247.191 155.963 246.945 156.407 246.52 156.53C243.879 157.289 241.839 157.947 237.298 159.467C232.736 160.994 230.68 161.657 228.01 162.425C227.585 162.547 227.142 162.302 227.019 161.876C226.897 161.45 227.143 161.006 227.568 160.884ZM226.171 171.889C229.046 170.865 231.287 170.124 236.283 168.515C241.263 166.911 243.494 166.173 246.348 165.157C246.765 165.008 247.223 165.226 247.371 165.644C247.52 166.061 247.302 166.519 246.885 166.668C244.01 167.691 241.769 168.433 236.773 170.042C231.793 171.646 229.563 172.384 226.708 173.4C226.291 173.548 225.833 173.33 225.685 172.913C225.537 172.496 225.755 172.038 226.171 171.889Z" fill="#482D1F"/>
<path d="M97.1166 48.9325C97.0738 46.8679 97.4061 44.6139 98.4658 42.3949C99.4776 40.1866 100.945 38.8524 101.57 38.2973C105.016 35.27 109.047 32.4175 114.772 31.2701C117.919 30.6396 120.378 31.2701 122.983 30.948C123.203 30.9443 123.396 30.8373 123.602 30.782C125.3 30.1051 134.613 27.1087 141.453 32.6337C141.481 32.7369 142.513 33.29 142.503 33.4588C142.503 33.4588 135.388 48.8137 120.52 51.9448C120.122 51.5154 119.067 50.4985 117.486 49.8541C117.304 49.7923 116.013 49.3084 114.593 49.5786C112.063 50.0362 110.009 52.6899 109.758 55.4688C109.431 58.3786 110.989 60.8937 113.02 62.2858C115.05 63.6778 117.238 63.5891 117.949 63.5642L118.785 63.3228C119.506 64.7058 120.008 66.1958 119.426 67.3325C118.3 69.5283 116.205 70.7961 113.141 71.1358C111.834 75.3681 104.895 75.1009 104.895 75.1009C104.895 75.1009 95.2855 74.8336 93.15 65.2122C91.7321 58.824 97.1163 59.867 97.1166 48.9325Z" fill="#482D1F"/>
<path d="M137.756 47.0457C136.148 47.3578 134.749 48.3519 133.904 49.0253C133.495 49.3851 133.63 50.0475 134.187 50.1578C134.817 50.2876 135.777 50.3496 136.775 49.8346C138.724 48.8314 140.137 46.4715 137.756 47.0457Z" fill="#482D1F"/>
<path d="M146.087 51.3833C146.025 50.7361 146.416 50.133 147.035 49.967C147.447 49.8563 147.864 49.966 148.212 50.6474C149.015 52.2027 148.052 55.0066 147.133 54.2571C146.451 53.7759 146.219 52.2887 146.087 51.3833ZM136.825 53.536C136.762 52.8888 137.154 52.2858 137.772 52.1198C138.185 52.0091 138.601 52.1188 138.949 52.8001C139.753 54.3554 138.79 57.1593 137.87 56.4098C137.189 55.9286 136.905 54.4553 136.825 53.536Z" fill="#482D1F"/>
<path d="M142.196 61.5477C141.807 61.5541 140.847 61.6287 140.541 62.1551C140.513 62.2584 140.42 62.3995 140.444 62.5166C140.567 62.8817 140.51 64.2648 141.466 64.4106C144.402 65.2123 145.226 63.8548 145.226 63.8548C145.226 63.8548 145.217 62.8799 144.901 62.3842C144.306 61.4511 142.804 61.545 142.196 61.5477Z" fill="#482D1F"/>
<path d="M143.512 52.4933L145.595 57.8155L145.614 57.8722C145.764 58.4357 145.519 59.0623 144.983 59.3066C144.883 59.3442 144.826 59.3637 144.77 59.3829C144.234 59.5648 143.844 59.6751 142.439 60.0521C142.154 60.1285 141.861 59.9592 141.785 59.6741C141.708 59.3889 141.877 59.0958 142.162 59.0194C143.542 58.6492 143.921 58.5419 144.427 58.3705C144.479 58.3526 144.532 58.3344 144.585 58.3159C144.573 58.3191 144.6 58.2476 144.587 58.1695L142.503 52.8471L142.48 52.7728L141.768 49.6989C141.702 49.4114 141.881 49.1242 142.168 49.0575C142.455 48.9908 142.742 49.1698 142.809 49.4574L143.512 52.4933Z" fill="#482D1F"/>
<path d="M124.355 124.923C123.056 119.92 121.671 114.719 120.197 109.321C120.08 108.894 119.64 108.642 119.213 108.759C118.786 108.876 118.535 109.317 118.652 109.744C120.124 115.136 121.508 120.33 122.804 125.326C122.915 125.755 123.353 126.012 123.781 125.9C124.209 125.789 124.466 125.351 124.355 124.923Z" fill="#482D1F"/>
</g>
<defs>
<clipPath id="clip0_1790_125783">
<rect width="542.431" height="480" fill="white" transform="translate(0.785156)"/>
</clipPath>
</defs>
</svg>
