<svg width="24" height="24" viewBox="0 0 24 24" xmlns="http://www.w3.org/2000/svg">
    <g fill="#575757" fill-rule="nonzero">
        <path d="M19.543 5.99a9.615 9.615 0 0 0-14.321-.81 9.615 9.615 0 0 0 0 13.598 9.615 9.615 0 0 0 13.598 0 1.374 1.374 0 0 0-1.943-1.942 6.868 6.868 0 1 1 .52-9.133 1.374 1.374 0 0 0 2.146-1.714z"/>
        <path d="M15 5.751a1.374 1.374 0 0 0-.131 2.744l3.709.176a1.374 1.374 0 0 0 1.438-1.312l.176-4.06a1.374 1.374 0 0 0-2.745-.121l-.116 2.684L15 5.751z"/>
    </g>
</svg>
