<svg id="ICON-SHOPPINGCART" xmlns="http://www.w3.org/2000/svg" width="26" height="26" viewBox="0 0 26 26">
    <defs>
        <style>
            .cls-2{fill:#00426A;stroke:#00426A;stroke-linecap:round;stroke-linejoin:round}
        </style>
    </defs>
    <path id="Rectangle_1070" data-name="Rectangle 1070" style="fill:none" d="M0 0h26v26H0z"/>
    <g id="Icon_feather-shopping-cart" data-name="Icon feather-shopping-cart" transform="translate(5 6)">
        <path id="Path_30" data-name="Path 30" class="cls-2" d="M13.388 30.694a.694.694 0 1 1-.694-.694.694.694 0 0 1 .694.694z" transform="translate(-7.141 -16.812)"/>
        <path id="Path_31" data-name="Path 31" class="cls-2" d="M29.888 30.694a.694.694 0 1 1-.694-.694.694.694 0 0 1 .694.694z" transform="translate(-16.006 -16.812)"/>
        <path id="Path_32" data-name="Path 32" d="M1.5 1.5h2.776l1.86 9.294a1.388 1.388 0 0 0 1.388 1.117h6.747a1.388 1.388 0 0 0 1.388-1.117L16.77 4.97H4.97" transform="translate(-1.5 -1.5)" style="stroke-width:2px;stroke:#00426A;stroke-linecap:round;stroke-linejoin:round;fill:none"/>
    </g>
</svg>
