<svg xmlns="http://www.w3.org/2000/svg" width="28" height="28" viewBox="0 0 28 28">
  <g id="Icon_ionic-logo-instagram" data-name="Icon ionic-logo-instagram" transform="translate(0 0)">
    <path id="Path_7" data-name="Path 7" d="M24.333,6.833a5.85,5.85,0,0,1,5.833,5.833V24.333a5.85,5.85,0,0,1-5.833,5.833H12.667a5.85,5.85,0,0,1-5.833-5.833V12.667a5.85,5.85,0,0,1,5.833-5.833H24.333m0-2.333H12.667A8.191,8.191,0,0,0,4.5,12.667V24.333A8.191,8.191,0,0,0,12.667,32.5H24.333A8.191,8.191,0,0,0,32.5,24.333V12.667A8.191,8.191,0,0,0,24.333,4.5Z" transform="translate(-4.5 -4.5)" fill="#fff"/>
    <path id="Path_8" data-name="Path 8" d="M25.375,12.5a1.75,1.75,0,1,1,1.75-1.75A1.746,1.746,0,0,1,25.375,12.5Z" transform="translate(-3.792 -4.333)" fill="#fff"/>
    <path id="Path_9" data-name="Path 9" d="M18.25,13.583a4.667,4.667,0,1,1-4.667,4.667,4.671,4.671,0,0,1,4.667-4.667m0-2.333a7,7,0,1,0,7,7,7,7,0,0,0-7-7Z" transform="translate(-4.25 -4.25)" fill="#fff"/>
  </g>
</svg>
