<svg id="icon_line" xmlns="http://www.w3.org/2000/svg" width="28" height="27.993" viewBox="0 0 28 27.993">
    <defs>
        <style>
            .cls-1{fill:#fff}
        </style>
    </defs>
    <path id="Path_1170" data-name="Path 1170" class="cls-1" d="M-311.69 347.6h-2.082c-.362-.05-.725-.091-1.086-.15a13.859 13.859 0 0 1-6.577-2.888 13.754 13.754 0 0 1-5.026-8.282c-.106-.538-.174-1.085-.259-1.628v-2.082c.021-.083.047-.165.061-.249.119-.714.187-1.44.361-2.14a14.017 14.017 0 0 1 17.026-10.135 13.948 13.948 0 0 1 9.782 18.037 13.608 13.608 0 0 1-10.573 9.258c-.537.116-1.085.172-1.627.259zm-1.1-22.127c-.23.016-.533.035-.835.06a9.228 9.228 0 0 0-5.42 2.162 5.938 5.938 0 0 0-2.268 4.759 5.759 5.759 0 0 0 1.716 3.955 9.135 9.135 0 0 0 5.6 2.665c.448.061.582.213.542.667s-.118.882-.133 1.324a.906.906 0 0 0 .175.572c.162.189.4.089.6-.022 1.073-.607 2.173-1.171 3.212-1.831a14.232 14.232 0 0 0 4.654-4.6 5.35 5.35 0 0 0 .8-2.705 5.837 5.837 0 0 0-1.847-4.392 9.563 9.563 0 0 0-6.798-2.616z" transform="translate(326.72 -319.605)"/>
    <path id="Path_1171" data-name="Path 1171" class="cls-1" d="M-312.919 331.941v1.785c0 .36-.14.529-.422.537s-.463-.176-.465-.537c-.006-1.04 0-2.08 0-3.12a.473.473 0 0 1 .318-.511.475.475 0 0 1 .555.23c.537.7 1.078 1.406 1.687 2.094v-1.891a.41.41 0 0 1 .415-.447.418.418 0 0 1 .46.435c.018.258.009.519.009.779v2.308c0 .268-.005.54-.318.641-.295.1-.451-.1-.61-.312-.516-.678-1.042-1.347-1.564-2.02z" transform="translate(326.72 -319.605)"/>
    <path id="Path_1172" data-name="Path 1172" class="cls-1" d="M-308.808 331.725h1.217c.309 0 .5.167.516.421a.46.46 0 0 1-.5.473c-.4.009-.8 0-1.226 0v.753h1.031a1.592 1.592 0 0 1 .385.037.362.362 0 0 1 .3.462c-.05.152-.232.36-.366.368-.626.039-1.256.032-1.884.01-.272-.009-.381-.232-.383-.481q-.009-1.611 0-3.22a.444.444 0 0 1 .461-.486q.861-.024 1.723 0a.427.427 0 0 1 .462.472.424.424 0 0 1-.485.411h-1.248z" transform="translate(326.72 -319.605)"/>
    <path id="Path_1173" data-name="Path 1173" class="cls-1" d="M-317.478 333.375h1.13c.383.005.6.169.6.446s-.214.443-.592.445c-.509 0-1.018.005-1.526 0-.384 0-.528-.149-.529-.531v-3.117c0-.356.167-.556.447-.549s.444.209.446.566v2.533c.008.053.016.105.024.207z" transform="translate(326.72 -319.605)"/>
    <path id="Path_1174" data-name="Path 1174" class="cls-1" d="M-315.334 332.179v-1.688c0-.307.134-.433.434-.433s.455.134.456.428c0 1.125.007 2.251 0 3.376 0 .309-.161.414-.5.407-.291-.007-.4-.158-.395-.435.009-.551.005-1.103.005-1.655z" transform="translate(326.72 -319.605)"/>
</svg>
