<svg id="icon_youtube" xmlns="http://www.w3.org/2000/svg" width="28.012" height="28" viewBox="0 0 28.012 28">
    <defs>
        <style>
            .cls-1{fill:#fff}
        </style>
    </defs>
    <path id="Path_1157" data-name="Path 1157" class="cls-1" d="M-296.11 367.321v-1.968c.022-.169.047-.338.066-.507a13.618 13.618 0 0 1 2.222-6.173 13.75 13.75 0 0 1 10.933-6.31 13.548 13.548 0 0 1 7.77 1.842 14.025 14.025 0 0 1 6.826 14.425 13.794 13.794 0 0 1-4.342 8.005 13.665 13.665 0 0 1-7.012 3.48c-.491.087-.987.145-1.48.217h-1.973c-.314-.041-.629-.076-.942-.122a13.818 13.818 0 0 1-7.262-3.319 13.757 13.757 0 0 1-4.593-8.093c-.084-.489-.141-.985-.213-1.477zm14.412 5.189c1.725-.094 3.816-.188 5.9-.329a2.113 2.113 0 0 0 2.105-1.895 29.063 29.063 0 0 0 .293-3.092 22.066 22.066 0 0 0-.24-4.628 2.2 2.2 0 0 0-1.8-2.005 10.492 10.492 0 0 0-1.489-.179q-1.663-.091-3.33-.134a65.216 65.216 0 0 0-8.186.238 2.167 2.167 0 0 0-2.09 1.891 29.118 29.118 0 0 0-.3 3.037 22.5 22.5 0 0 0 .241 4.709 2.217 2.217 0 0 0 1.84 2 10.263 10.263 0 0 0 1.353.165c1.784.081 3.559.14 5.701.222z" transform="translate(296.11 -352.332)"/>
    <path id="Path_1158" data-name="Path 1158" class="cls-1" d="m-279.288 366.337-4.558 2.623v-5.246z" transform="translate(296.11 -352.332)"/>
</svg>
