<svg id="icon_ig" xmlns="http://www.w3.org/2000/svg" width="28.012" height="28" viewBox="0 0 28.012 28">
    <defs>
        <style>
            .cls-1{fill:#fff}
        </style>
    </defs>
    <path id="Path_1154" data-name="Path 1154" class="cls-1" d="M-341.544 380.332h-1.969c-.314-.041-.629-.076-.943-.122a13.817 13.817 0 0 1-7.282-3.336 13.756 13.756 0 0 1-4.572-8.076c-.088-.489-.145-.985-.217-1.477v-1.968c.022-.169.046-.338.066-.507a13.607 13.607 0 0 1 2.222-6.173 13.748 13.748 0 0 1 10.932-6.31 13.553 13.553 0 0 1 7.771 1.842 14.025 14.025 0 0 1 6.826 14.425 13.789 13.789 0 0 1-4.343 8.005 13.658 13.658 0 0 1-7.011 3.48c-.491.085-.987.145-1.48.217zm-.989-21.977v-.093c-1.31.049-2.624.049-3.93.158a4.138 4.138 0 0 0-3.426 2.125 4.875 4.875 0 0 0-.611 2.3 67.179 67.179 0 0 0 .048 7.428 4.308 4.308 0 0 0 .9 2.362 4.553 4.553 0 0 0 3.669 1.679q2.2.07 4.4.049a24.486 24.486 0 0 0 3.241-.168 4.017 4.017 0 0 0 3.436-2.92 7.592 7.592 0 0 0 .286-2.429c-.01-2.148-.02-4.3-.087-6.445a4.029 4.029 0 0 0-.893-2.362 4.534 4.534 0 0 0-3.642-1.675c-1.131-.041-2.258-.009-3.391-.009z" transform="translate(356.527 -352.332)"/>
    <path id="Path_1155" data-name="Path 1155" class="cls-1" d="M-342.535 359.7c1.256.044 2.513.061 3.767.137a2.781 2.781 0 0 1 2.732 2.742c.076 2.01.077 4.023.078 6.035a9.4 9.4 0 0 1-.17 1.978 2.685 2.685 0 0 1-2.64 2.234c-2.029.069-4.061.075-6.091.076a9.23 9.23 0 0 1-1.951-.175 2.669 2.669 0 0 1-2.212-2.626c-.07-2.01-.078-4.023-.079-6.035a9.6 9.6 0 0 1 .175-2.005 2.727 2.727 0 0 1 2.622-2.227c.626-.046 1.254-.073 1.882-.088s1.257 0 1.886 0zm4.119 6.643a4.088 4.088 0 0 0-4.1-4.121 4.089 4.089 0 0 0-4.129 4.089 4.091 4.091 0 0 0 4.111 4.135 4.09 4.09 0 0 0 4.118-4.1zm.175-3.342a.966.966 0 0 0 .963-.948.968.968 0 0 0-.944-.968.963.963 0 0 0-.973.963.96.96 0 0 0 .954.952z" transform="translate(356.527 -352.332)"/>
    <path id="Path_1156" data-name="Path 1156" class="cls-1" d="M-339.85 366.357a2.666 2.666 0 0 1-2.712 2.658 2.667 2.667 0 0 1-2.645-2.7 2.666 2.666 0 0 1 2.712-2.658 2.665 2.665 0 0 1 2.645 2.7z" transform="translate(356.527 -352.332)"/>
</svg>
