<svg xmlns="http://www.w3.org/2000/svg" width="28.013" height="27.972" viewBox="0 0 28.013 27.972">
    <path d="M-326.726 367.321v-1.968c.041-.322.077-.646.124-.967a13.361 13.361 0 0 1 2.554-6.272 13.746 13.746 0 0 1 13.264-5.637 13.123 13.123 0 0 1 6.281 2.531 13.856 13.856 0 0 1 5.462 14.231 13.7 13.7 0 0 1-8.7 10.179c-.354.145-.724.251-1.107.382v-10.386h3l.45-3.472H-308.614c-.151 0-.262 0-.258-.209.016-.819 0-1.64.032-2.459a1.171 1.171 0 0 1 1.018-1.2 4.85 4.85 0 0 1 .894-.083c.535-.012 1.071 0 1.616 0v-3.1a.9.9 0 0 0-.148-.03c-.919-.04-1.838-.1-2.757-.107a4.368 4.368 0 0 0-2 .468 4.042 4.042 0 0 0-2.232 3.652c-.055.917-.016 1.84-.02 2.76 0 .1-.008.2-.014.319h-2.976v3.486h2.99V380.013c0 .109.009.218.013.327h-1.258c-.314-.041-.629-.075-.942-.122a13.871 13.871 0 0 1-8.322-4.343 13.646 13.646 0 0 1-3.533-7.069c-.089-.498-.144-.993-.215-1.485z" transform="translate(326.726 -352.36)" style="fill:#fff"/>
</svg>
