<svg id="logo" xmlns="http://www.w3.org/2000/svg" xmlns:xlink="http://www.w3.org/1999/xlink" width="186" height="42" viewBox="0 0 186 42">
  <defs>
    <style>
      .cls-1, .cls-4 {
        fill: #fff;
      }

      .cls-1 {
        stroke: #707070;
      }

      .cls-2 {
        fill: none;
      }

      .cls-3 {
        clip-path: url(#clip-path);
      }

      .cls-5 {
        fill: #00be96;
      }

      .cls-6 {
        fill: #fa0000;
      }

      .cls-7 {
        fill: #ffb400;
      }

      .cls-8 {
        fill: #00a0ff;
      }

      .cls-9 {
        fill: #00a000;
      }
    </style>
    <clipPath id="clip-path">
      <rect id="Rectangle_304" data-name="Rectangle 304" class="cls-1" width="180.489" height="42" transform="translate(0 0)"/>
    </clipPath>
  </defs>
  <rect id="Rectangle_1" data-name="Rectangle 1" class="cls-2" width="186" height="42" transform="translate(0 0)"/>
  <g id="Group_1" data-name="Group 1" transform="translate(0 0.167)">
    <g id="Mask_Group_20" data-name="Mask Group 20" class="cls-3" transform="translate(0 -0.167)">
      <g id="Group_632" data-name="Group 632" transform="translate(298.279 -161.64)">
        <g id="Group_629" data-name="Group 629">
          <g id="Group_626" data-name="Group 626">
            <g id="Group_625" data-name="Group 625">
              <path id="Path_1103" data-name="Path 1103" class="cls-4" d="M-220.561,181.553a41.526,41.526,0,0,1-1.133,4.68l-1.427-.4a22.872,22.872,0,0,0,1.175-4.511Zm-.461-9.064q1.469-.042,2.518-.083.774-1.386,1.636-3.022l1.448.671a63.818,63.818,0,0,1-5.12,7.869q1.3-.147,3.357-.441-.355-1.008-.713-1.93l1.259-.483q.774,1.869,1.531,4.176l-1.343.545q-.147-.5-.314-.986-3.777.525-5.287.881l-.5-1.49a27.077,27.077,0,0,0,3.231-4.426q-1.785.1-3.084.23l-.4-1.385a28.52,28.52,0,0,0,3.651-6.651l1.511.566A58.56,58.56,0,0,1-221.022,172.489Zm2.538,8.729q.315,2.058.525,3.882l-1.385.23q-.063-1.509-.357-3.923Zm2.308-.42q.483,1.491,1.05,3.357l-1.427.315q-.315-1.572-.84-3.378Zm.882-6.945h9.4l.211-1.532h-8.037l1.028-6.274,1.449.127-.231,1.469h7.952l-.882,6.21h2.308v1.427h-5.772v.692a16.562,16.562,0,0,0,1.343,2.959,25.474,25.474,0,0,0,2.644-2.812l1.174,1.07q-1.278,1.344-3.02,2.959a11.554,11.554,0,0,0,3.735,3.273q-.631.691-1.218,1.385a14.373,14.373,0,0,1-4.658-5.729v4.682q0,2.559-2.37,2.56h-2.246q-.105-.777-.293-1.721,1.3.126,2.161.126,1.278,0,1.28-1.343v-2.122q-2.035,1.133-4.449,2.538l-.755-1.468q2.265-1.09,5.2-2.812V175.28H-215.3Zm2.455,2.266q1.091,1.386,2.245,3.022l-1.28.9a37.307,37.307,0,0,0-2.1-3.085Zm.839-5.183h6.525l.273-1.908h-6.5Z"/>
              <path id="Path_1104" data-name="Path 1104" class="cls-4" d="M-200.691,168.859h8.771v-2.643h1.6v2.643h8.9v1.469h-7.512a22.812,22.812,0,0,0,8.288,5.371q-.546.819-.965,1.49a23.019,23.019,0,0,1-8.707-6.483v5.917h-1.6v-5.791a23.109,23.109,0,0,1-8.519,6.441,14,14,0,0,0-1.091-1.384,23.545,23.545,0,0,0,8.246-5.561h-7.407Zm1.889,8.645h15.4v8.938H-185v-1.174h-12.212v1.174H-198.8ZM-185,178.973h-12.212V183.8H-185Z"/>
              <path id="Path_1105" data-name="Path 1105" class="cls-4" d="M-180.15,176.2a32.453,32.453,0,0,0,3.924-10.176l1.448.356a37.041,37.041,0,0,1-1.448,4.952v15.191h-1.385v-11.98a35.074,35.074,0,0,1-1.888,3.315A10.586,10.586,0,0,0-180.15,176.2Zm6.022,1.007a11.593,11.593,0,0,0,1.448,3.756,14.437,14.437,0,0,0,.965-5.141h-3.126v-1.384l2.9-4.826h-2.769v-1.343h4.442v1.364l-2.917,4.846h2.917v1.448a16.376,16.376,0,0,1-1.363,6.358,7.993,7.993,0,0,0,6.168,2.1q3.042.042,6.337-.126-.315.8-.651,1.679-2.9,0-5.854-.042a9.33,9.33,0,0,1-6.714-2.225,15.288,15.288,0,0,1-2.329,3.022,11.433,11.433,0,0,0-1.112-1.154,13.792,13.792,0,0,0,2.392-3.063,12.23,12.23,0,0,1-1.973-4.742Zm4.092,3.231h3.777V178.6h-3.294V177.42h3.294v-1.846h-3V174.4h3v-1.826h-4.05v-1.214h4.05v-1.828h-2.959v-1.172h2.959v-2.185h1.427v2.185h3.776v3h1.742v1.217h-1.742v3.5h-1.406v-.5h-2.37v1.846h4.133V178.6h-4.133v1.846h4.448v1.176h-4.448V183.8h-1.427v-2.183h-3.777Zm7.574-10.91h-2.37v1.828h2.37Zm0,4.868v-1.826h-2.37V174.4Z"/>
              <path id="Path_1106" data-name="Path 1106" class="cls-4" d="M-148.446,166.614l1.449-.776q.628,1.007,1.342,2.266h7.6v1.385h-16.723v4.679h7.072v-1.574h-5.749v-1.259h5.749v-1.384h1.51v1.384h6.044v2.833h2.37v1.28h-2.37v3.294h-1.427V178.3H-146.2v.458a18.871,18.871,0,0,0,2.2,2.287q2.141-1.112,3.818-2.182l.987,1.238q-1.68.9-3.672,1.846A16.42,16.42,0,0,0-138,184.466q-.63.84-1.05,1.469a18.625,18.625,0,0,1-7.155-5.141v3.445q0,2.225-2.308,2.224-.966,0-2.538-.042a15.484,15.484,0,0,0-.252-1.657q1.7.147,2.539.146a.95.95,0,0,0,1.049-.839,1.042,1.042,0,0,0,0-.209V182.6q-3.252,1.092-7.029,2.371l-.4-1.49q4.32-1.258,7.428-2.329V178.3h-5.875v-1.259h5.875v-1.594h-7.072v.524q0,6.717-2.622,10.68-.525-.711-1.154-1.427a17.011,17.011,0,0,0,2.183-9.169V168.1h8.832Q-147.963,167.413-148.446,166.614Zm-5.266,13.24.839-1.028a30.37,30.37,0,0,1,2.917,1.867l-.965,1.175A26.522,26.522,0,0,0-153.712,179.854Zm12.128-7.26H-146.2v1.574h4.617Zm0,4.448v-1.594H-146.2v1.594Z"/>
              <path id="Path_1107" data-name="Path 1107" class="cls-4" d="M-136.025,170.642h6.8q.063-2.307.083-4.7h1.826q-.042,2.225-.1,4.7h9.631q-.252,8.2-.482,11.6-.274,3.609-3.861,3.651-1.722,0-4.155-.084-.084-.816-.315-1.994h.063q2.729.252,4.239.231a2.138,2.138,0,0,0,2.245-2.025c0-.073,0-.147,0-.22q.252-3.754.377-9.442h-7.789q-.19,5.466-1.742,8.225-1.659,3.064-6.463,5.9-.588-.754-1.259-1.6,4.553-2.559,5.98-5.161,1.479-2.361,1.658-7.365h-6.736Z"/>
            </g>
          </g>
          <g id="Group_628" data-name="Group 628">
            <g id="Group_627" data-name="Group 627">
              <path id="Path_1108" data-name="Path 1108" class="cls-4" d="M-217.085,199a4.526,4.526,0,0,1-2.119.444,3.435,3.435,0,0,1-2.629-1.045,3.866,3.866,0,0,1-.983-2.764,4.061,4.061,0,0,1,1.106-2.974,3.778,3.778,0,0,1,2.812-1.126,4.584,4.584,0,0,1,1.813.311v1.032a3.664,3.664,0,0,0-1.8-.454,2.74,2.74,0,0,0-2.086.852,3.215,3.215,0,0,0-.805,2.3,3.075,3.075,0,0,0,.751,2.181,2.557,2.557,0,0,0,1.967.808,3.708,3.708,0,0,0,1.976-.515Z"/>
              <path id="Path_1109" data-name="Path 1109" class="cls-4" d="M-209.541,199.314h-1.091l-.781-2.1H-214.6l-.736,2.1h-1.091l2.914-7.655h1.057Zm-2.178-2.955-1.157-3.183a3.338,3.338,0,0,1-.118-.533h-.025a3.032,3.032,0,0,1-.123.533l-1.147,3.183Z"/>
              <path id="Path_1110" data-name="Path 1110" class="cls-4" d="M-202.846,199.314h-1.166l-1.27-2.125a3.011,3.011,0,0,0-.7-.867,1.258,1.258,0,0,0-.757-.23h-.711v3.222h-.988v-7.655h2.331a2.62,2.62,0,0,1,1.75.538,1.875,1.875,0,0,1,.632,1.507,2.019,2.019,0,0,1-1.7,2.065v.025a1.549,1.549,0,0,1,.545.381,5.684,5.684,0,0,1,.6.844Zm-4.6-6.788v2.7h1.166a1.539,1.539,0,0,0,1.1-.4,1.356,1.356,0,0,0,.423-1.038,1.174,1.174,0,0,0-.386-.934,1.661,1.661,0,0,0-1.121-.335Z"/>
              <path id="Path_1111" data-name="Path 1111" class="cls-4" d="M-197.713,199.314h-4.115v-7.655h3.942v.879h-2.955v2.451h2.737v.874h-2.737v2.576h3.128Z"/>
              <path id="Path_1112" data-name="Path 1112" class="cls-4" d="M-192.283,196.453v2.861h-.985v-7.655h2.173a2.836,2.836,0,0,1,1.925.6,2.152,2.152,0,0,1,.685,1.709,2.312,2.312,0,0,1-.8,1.825,2.78,2.78,0,0,1-2,.66Zm0-3.923v3.054h.914a2.034,2.034,0,0,0,1.373-.408,1.466,1.466,0,0,0,.47-1.168q0-1.478-1.75-1.478Z"/>
              <path id="Path_1113" data-name="Path 1113" class="cls-4" d="M-183.045,199.314h-4.036v-7.655h.988v6.78h3.048Z"/>
              <path id="Path_1114" data-name="Path 1114" class="cls-4" d="M-176.368,196.2q0,3.246-2.945,3.246-2.821,0-2.821-3.132v-4.651h.989v4.6q0,2.3,1.926,2.3,1.863,0,1.863-2.223v-4.677h.988Z"/>
              <path id="Path_1115" data-name="Path 1115" class="cls-4" d="M-174.843,197.876a2.712,2.712,0,0,0,.939.5,3.5,3.5,0,0,0,1.116.2q1.608,0,1.611-1.147a1.024,1.024,0,0,0-.173-.578,1.712,1.712,0,0,0-.474-.455,11.692,11.692,0,0,0-1.132-.607,4.35,4.35,0,0,1-1.517-1.065,1.827,1.827,0,0,1-.365-1.124,1.771,1.771,0,0,1,.765-1.511,3.193,3.193,0,0,1,1.932-.558,3.837,3.837,0,0,1,1.674.276v1.077a3,3,0,0,0-1.748-.479,2.027,2.027,0,0,0-1.144.294.926.926,0,0,0-.442.818,1,1,0,0,0,.306.755,6.107,6.107,0,0,0,1.329.8,4.722,4.722,0,0,1,1.576,1.077,1.843,1.843,0,0,1,.45,1.21,1.8,1.8,0,0,1-.731,1.546,3.362,3.362,0,0,1-2.031.539,5.248,5.248,0,0,1-1.06-.126,2.539,2.539,0,0,1-.881-.313Z"/>
              <path id="Path_1116" data-name="Path 1116" class="cls-4" d="M-165.655,199.314v-7.655h2.187a4.232,4.232,0,0,1,2.893,1.013,3.438,3.438,0,0,1,1.153,2.717,3.712,3.712,0,0,1-1.153,2.851,4.2,4.2,0,0,1-2.973,1.072Zm.989-6.774v5.9h1.112a3.123,3.123,0,0,0,2.275-.795,2.97,2.97,0,0,0,.818-2.228,2.685,2.685,0,0,0-.841-2.154,3.269,3.269,0,0,0-2.208-.722Z"/>
              <path id="Path_1117" data-name="Path 1117" class="cls-4" d="M-155.14,194.808a1.137,1.137,0,0,0-.667-.173,1.093,1.093,0,0,0-.929.527,2.369,2.369,0,0,0-.366,1.385v2.767h-.966V193.85h.968v1.109h.02a1.494,1.494,0,0,1,1.433-1.2,1.38,1.38,0,0,1,.509.074Z"/>
              <path id="Path_1118" data-name="Path 1118" class="cls-4" d="M-155.392,198.8a.61.61,0,0,1,.182-.45.64.64,0,0,1,.905-.015.642.642,0,0,1,.195.465.61.61,0,0,1-.182.442.624.624,0,0,1-.465.185.623.623,0,0,1-.632-.614V198.8Z"/>
              <path id="Path_1119" data-name="Path 1119" class="cls-4" d="M-143.55,199.314h-1.092l-.78-2.1h-3.186l-.737,2.1h-1.092l2.915-7.655h1.054Zm-2.179-2.955-1.156-3.183a3.57,3.57,0,0,1-.119-.533h-.024a3.029,3.029,0,0,1-.123.533l-1.146,3.183Z"/>
              <path id="Path_1120" data-name="Path 1120" class="cls-4" d="M-137.824,199.314h-.968V198.4h-.02a2,2,0,0,1-1.858,1.037,2.027,2.027,0,0,1-1.649-.739,3.015,3.015,0,0,1-.613-1.993,3.254,3.254,0,0,1,.691-2.172,2.256,2.256,0,0,1,1.809-.817,1.734,1.734,0,0,1,1.62.869h.02v-3.364h.968Zm-.963-3.251a1.511,1.511,0,0,0-.433-1.1,1.431,1.431,0,0,0-1.064-.442,1.453,1.453,0,0,0-1.216.575,2.5,2.5,0,0,0-.444,1.568,2.232,2.232,0,0,0,.427,1.445,1.387,1.387,0,0,0,1.139.532,1.432,1.432,0,0,0,1.146-.522,1.922,1.922,0,0,0,.445-1.3Z"/>
              <path id="Path_1121" data-name="Path 1121" class="cls-4" d="M-131.693,193.85l-2.164,5.464h-.978l-2.055-5.464h1.057l1.335,3.9a3.61,3.61,0,0,1,.192.786h.025a3.413,3.413,0,0,1,.173-.766l1.4-3.922Z"/>
              <path id="Path_1122" data-name="Path 1122" class="cls-4" d="M-130.9,191.922a.6.6,0,0,1,.593-.607h.015a.622.622,0,0,1,.442.173.583.583,0,0,1,.18.434.567.567,0,0,1-.18.428.62.62,0,0,1-.442.17.587.587,0,0,1-.435-.17A.572.572,0,0,1-130.9,191.922Zm.113,7.392V193.85h.969v5.464Z"/>
              <path id="Path_1123" data-name="Path 1123" class="cls-4" d="M-124.317,199.067a2.892,2.892,0,0,1-1.512.375,2.5,2.5,0,0,1-1.906-.761,2.745,2.745,0,0,1-.722-1.971,3.016,3.016,0,0,1,.779-2.166,2.728,2.728,0,0,1,2.081-.823,2.855,2.855,0,0,1,1.286.267v.958a2.123,2.123,0,0,0-1.286-.424,1.735,1.735,0,0,0-1.35.575,2.2,2.2,0,0,0-.522,1.535,2.09,2.09,0,0,0,.493,1.476,1.711,1.711,0,0,0,1.326.534,2.2,2.2,0,0,0,1.333-.465Z"/>
              <path id="Path_1124" data-name="Path 1124" class="cls-4" d="M-118.568,196.829h-3.825a1.962,1.962,0,0,0,.48,1.351,1.666,1.666,0,0,0,1.27.477,2.7,2.7,0,0,0,1.684-.588v.864a3.255,3.255,0,0,1-1.912.509,2.335,2.335,0,0,1-1.849-.75,3.03,3.03,0,0,1-.666-2.086,2.99,2.99,0,0,1,.729-2.07,2.334,2.334,0,0,1,1.811-.815,2.117,2.117,0,0,1,1.675.689,2.847,2.847,0,0,1,.6,1.93Zm-.968-.776a1.743,1.743,0,0,0-.352-1.146,1.212,1.212,0,0,0-.973-.4,1.36,1.36,0,0,0-1,.429,1.992,1.992,0,0,0-.531,1.122Z"/>
            </g>
          </g>
        </g>
        <path id="Path_1125" data-name="Path 1125" class="cls-4" d="M-246.052,161.64h-34.207c-.459,0-.937.021-1.458.063a18.106,18.106,0,0,0-16.563,17.956v5.957a18.107,18.107,0,0,0,16.565,17.961c.531.043,1.007.063,1.456.063h34.207a18.043,18.043,0,0,0,18.022-18.022v-5.959A18.044,18.044,0,0,0-246.052,161.64Z"/>
        <g id="Group_631" data-name="Group 631">
          <path id="Path_1126" data-name="Path 1126" class="cls-5" d="M-246.05,165.838h-18.286v33.6h18.286a13.823,13.823,0,0,0,13.823-13.823h0v-5.955A13.824,13.824,0,0,0-246.05,165.838Zm7.382,20.375h-6.3v6.3h-7.144v-6.3h-6.3v-7.145h6.3v-6.3h7.144v6.3h6.3Z"/>
          <g id="Group_630" data-name="Group 630">
            <path id="Path_1127" data-name="Path 1127" class="cls-6" d="M-280.258,165.838c-.378,0-.752.019-1.123.049v7.257a8.123,8.123,0,0,1,2.354-.349h13.8v-6.957Z"/>
            <path id="Path_1128" data-name="Path 1128" class="cls-7" d="M-287.128,180.894a8.1,8.1,0,0,1,5.747-7.75v-7.257a13.822,13.822,0,0,0-12.7,13.772v2.98h6.954Z"/>
            <path id="Path_1129" data-name="Path 1129" class="cls-8" d="M-287.128,184.386v-1.747h-6.954v2.979a13.823,13.823,0,0,0,12.7,13.775v-7.257A8.1,8.1,0,0,1-287.128,184.386Z"/>
            <path id="Path_1130" data-name="Path 1130" class="cls-9" d="M-281.381,192.136v7.257c.371.029.745.049,1.123.049h15.026v-6.957h-13.8A8.09,8.09,0,0,1-281.381,192.136Z"/>
          </g>
        </g>
      </g>
    </g>
  </g>
</svg>
