<svg xmlns="http://www.w3.org/2000/svg" width="138.628" height="26" viewBox="0 0 138.628 26">
  <defs>
    <style>
      .cls-1 {
        fill: #fff;
      }

      .cls-2 {
        fill: #00be96;
      }

      .cls-3 {
        fill: #cd131c;
      }

      .cls-4 {
        fill: #ffb400;
      }

      .cls-5 {
        fill: #00a0ff;
      }

      .cls-6 {
        fill: #00a000;
      }
    </style>
  </defs>
  <g id="Group_632" data-name="Group 632" transform="translate(298.184 -74.991)">
    <g id="Group_626" data-name="Group 626">
      <g id="Group_625" data-name="Group 625">
        <path id="Path_1103" data-name="Path 1103" class="cls-1" d="M-249.418,92.613a36.41,36.41,0,0,1-.991,4.093l-1.248-.35a19.983,19.983,0,0,0,1.028-3.945Zm-.4-7.925q1.284-.038,2.2-.073.678-1.212,1.431-2.642l1.266.587a55.651,55.651,0,0,1-4.477,6.88q1.137-.129,2.936-.385-.311-.882-.624-1.688l1.1-.422q.678,1.633,1.339,3.651l-1.175.477q-.128-.438-.274-.862-3.3.459-4.623.77l-.437-1.3a23.663,23.663,0,0,0,2.825-3.87q-1.56.087-2.7.2l-.35-1.211a24.893,24.893,0,0,0,3.193-5.816l1.321.495A51.214,51.214,0,0,1-249.821,84.688Zm2.219,7.632q.276,1.8.459,3.395l-1.211.2q-.056-1.32-.312-3.43Zm2.018-.367q.423,1.3.918,2.936l-1.248.275q-.274-1.375-.734-2.954Zm.771-6.072h8.22l.184-1.34h-7.027l.9-5.486,1.267.111-.2,1.285h6.954l-.772,5.43h2.019v1.247h-5.047v.605a14.531,14.531,0,0,0,1.174,2.588,22.307,22.307,0,0,0,2.312-2.459l1.026.936q-1.117,1.175-2.64,2.587a10.116,10.116,0,0,0,3.265,2.862q-.55.6-1.065,1.211a12.573,12.573,0,0,1-4.072-5.01v4.094q0,2.238-2.073,2.239h-1.964q-.092-.679-.256-1.5,1.137.109,1.89.11,1.117,0,1.119-1.174V92.356q-1.779.99-3.89,2.22l-.66-1.284q1.98-.954,4.546-2.459V87.128h-5.21Zm2.147,1.981q.954,1.21,1.963,2.642l-1.119.787q-.851-1.394-1.837-2.7Zm.734-4.532h5.705l.239-1.668h-5.684Z"/>
        <path id="Path_1104" data-name="Path 1104" class="cls-1" d="M-232.044,81.514h7.669V79.2h1.4v2.311h7.782V82.8h-6.568a19.952,19.952,0,0,0,7.247,4.7q-.477.715-.844,1.3a20.135,20.135,0,0,1-7.613-5.669V88.3h-1.4V83.239a20.2,20.2,0,0,1-7.449,5.632,12.22,12.22,0,0,0-.954-1.21,20.581,20.581,0,0,0,7.21-4.863h-6.476Zm1.652,7.559h13.465v7.815h-1.393V95.862H-229v1.026h-1.394Zm12.072,1.284H-229v4.219h10.678Z"/>
        <path id="Path_1105" data-name="Path 1105" class="cls-1" d="M-214.083,87.935a28.347,28.347,0,0,0,3.431-8.9l1.266.311a32.425,32.425,0,0,1-1.266,4.33V96.962h-1.211V86.486a30.355,30.355,0,0,1-1.651,2.9A9.147,9.147,0,0,0-214.083,87.935Zm5.266.881a10.142,10.142,0,0,0,1.266,3.284,12.587,12.587,0,0,0,.843-4.495h-2.733v-1.21l2.536-4.22h-2.421V81h3.884v1.192l-2.551,4.238h2.551V87.7a14.323,14.323,0,0,1-1.192,5.559,6.988,6.988,0,0,0,5.393,1.836q2.659.037,5.541-.11-.274.7-.569,1.468-2.537,0-5.119-.037a8.156,8.156,0,0,1-5.87-1.945,13.358,13.358,0,0,1-2.037,2.642,10.068,10.068,0,0,0-.972-1.009,12.038,12.038,0,0,0,2.091-2.678,10.73,10.73,0,0,1-1.725-4.146Zm3.578,2.825h3.3V90.027h-2.88V89h2.88V87.385h-2.623V86.358h2.623v-1.6h-3.541V83.7h3.541V82.1h-2.587V81.077h2.587V79.166h1.248v1.911h3.3V83.7h1.523v1.064h-1.523v3.06h-1.23v-.437h-2.072V89h3.614v1.028h-3.614v1.614h3.889v1.028h-3.889v1.907h-1.248V92.669h-3.3Zm6.622-9.54h-2.072v1.6h2.072Zm0,4.257v-1.6h-2.072v1.6Z"/>
        <path id="Path_1106" data-name="Path 1106" class="cls-1" d="M-186.361,79.551l1.267-.679q.549.88,1.173,1.982h6.641v1.211H-191.9v4.091h6.183V84.78h-5.026v-1.1h5.026v-1.21h1.321v1.21h5.285v2.477h2.072v1.119h-2.072v2.88h-1.248V89.77H-184.4v.4a16.448,16.448,0,0,0,1.923,2q1.872-.972,3.339-1.908l.863,1.083q-1.469.786-3.211,1.614a14.365,14.365,0,0,0,4.257,2.2q-.552.735-.918,1.285a16.3,16.3,0,0,1-6.257-4.5v3.012q0,1.944-2.018,1.945-.843,0-2.219-.037a13.619,13.619,0,0,0-.22-1.449q1.486.129,2.22.128a.831.831,0,0,0,.917-.734.8.8,0,0,0,0-.183v-1.1q-2.844.954-6.146,2.074l-.35-1.3q3.778-1.1,6.495-2.037v-2.5h-5.137v-1.1h5.137V87.275h-6.184v.458q0,5.873-2.292,9.339-.459-.623-1.009-1.248a14.874,14.874,0,0,0,1.908-8.017V80.854h7.723Q-185.938,80.248-186.361,79.551Zm-4.605,11.577.734-.9a26.562,26.562,0,0,1,2.55,1.632l-.843,1.028A22.934,22.934,0,0,0-190.966,91.128Zm10.605-6.348H-184.4v1.376h4.037Zm0,3.889V87.275H-184.4v1.394Z"/>
        <path id="Path_1107" data-name="Path 1107" class="cls-1" d="M-175.5,83.073h5.945q.055-2.018.073-4.11h1.6q-.038,1.946-.092,4.11h8.421q-.221,7.17-.421,10.143a3.067,3.067,0,0,1-3.376,3.192q-1.506,0-3.633-.073-.074-.714-.276-1.744h.055q2.387.22,3.707.2a1.87,1.87,0,0,0,1.963-1.771q0-.1,0-.192.221-3.284.329-8.256h-6.81a16.228,16.228,0,0,1-1.523,7.192q-1.452,2.679-5.652,5.159-.513-.66-1.1-1.4,3.982-2.238,5.229-4.513,1.293-2.064,1.45-6.44h-5.89Z"/>
      </g>
    </g>
    <path id="Path_1125" data-name="Path 1125" class="cls-1" d="M-265.852,74.991h-21.176c-.284,0-.58.013-.9.039a11.21,11.21,0,0,0-10.254,11.116v3.688a11.21,11.21,0,0,0,10.255,11.118c.329.027.623.039.9.039h21.176A11.17,11.17,0,0,0-254.7,89.835V86.146A11.17,11.17,0,0,0-265.852,74.991Z"/>
    <g id="Group_631" data-name="Group 631">
      <path id="Path_1126" data-name="Path 1126" class="cls-2" d="M-265.851,77.59h-11.32v20.8h11.32a8.557,8.557,0,0,0,8.557-8.557h0V86.146A8.556,8.556,0,0,0-265.851,77.59Zm4.57,12.613h-3.9v3.9H-269.6V90.2h-3.9V85.78h3.9v-3.9h4.422v3.9h3.9Z"/>
      <g id="Group_630" data-name="Group 630">
        <path id="Path_1127" data-name="Path 1127" class="cls-3" d="M-287.027,77.59c-.234,0-.466.012-.695.03v4.493a4.992,4.992,0,0,1,1.457-.216h8.543V77.59Z"/>
        <path id="Path_1128" data-name="Path 1128" class="cls-4" d="M-291.28,86.91a5.013,5.013,0,0,1,3.558-4.8V77.62a8.558,8.558,0,0,0-7.863,8.526v1.845h4.3Z"/>
        <path id="Path_1129" data-name="Path 1129" class="cls-5" d="M-291.28,89.072V87.991h-4.3v1.844a8.557,8.557,0,0,0,7.862,8.527V93.87A5.014,5.014,0,0,1-291.28,89.072Z"/>
        <path id="Path_1130" data-name="Path 1130" class="cls-6" d="M-287.722,93.87v4.492c.229.018.461.031.695.031h9.3V94.086h-8.543A5.005,5.005,0,0,1-287.722,93.87Z"/>
      </g>
    </g>
  </g>
</svg>
