<svg xmlns="http://www.w3.org/2000/svg" width="40" height="44" viewBox="0 0 40 44">
  <defs>
    <style>
      .cls-1 {
        opacity: 0.996;
      }

      .cls-2 {
        fill: #fff;
      }

      .cls-3 {
        fill: none;
      }
    </style>
  </defs>
  <g id="ICON-Search" class="cls-1">
    <path id="Path_1334" data-name="Path 1334" class="cls-2" d="M-223.12,405.831l-4.011-3.935a9.339,9.339,0,0,0,2.121-5.933,9.392,9.392,0,0,0-9.382-9.38,9.314,9.314,0,0,0-6.632,2.748,9.316,9.316,0,0,0-2.747,6.634,9.324,9.324,0,0,0,2.748,6.632,9.322,9.322,0,0,0,6.632,2.747h0a9.331,9.331,0,0,0,5.845-2.056l4.037,3.96a.983.983,0,0,0,.694.284.991.991,0,0,0,.708-.3A.993.993,0,0,0-223.12,405.831Zm-11.271-2.471a7.348,7.348,0,0,1-5.23-2.166,7.347,7.347,0,0,1-2.167-5.23,7.347,7.347,0,0,1,2.166-5.231,7.346,7.346,0,0,1,5.232-2.167,7.4,7.4,0,0,1,7.4,7.4,7.406,7.406,0,0,1-7.4,7.4Z" transform="translate(253.772 -374.583)"/>
    <rect id="Rectangle_12" data-name="Rectangle 12" class="cls-3" width="40" height="44"/>
  </g>
</svg>
