<svg xmlns="http://www.w3.org/2000/svg" width="40" height="44"><path data-name="Path 1335" d="M-197.843 406.579v-.015l-.059-.271a9.341 9.341 0 0 0-.244-.968 9.89 9.89 0 0 0-5.452-6.2 7.036 7.036 0 0 0 3.024-4.947 7.036 7.036 0 0 0-1.842-6 6.692 6.692 0 0 0-4.951-2.216 6.833 6.833 0 0 0-5.183 2.456 7.018 7.018 0 0 0-1.668 5.459 7.07 7.07 0 0 0 3.06 5.245c-.2.094-.413.192-.616.3a9.913 9.913 0 0 0-4.437 4.829 10.914 10.914 0 0 0-.747 2.535.986.986 0 0 0 .787 1.16.944.944 0 0 0 .163.015.978.978 0 0 0 .95-.836 7.412 7.412 0 0 1 .358-1.459 8.1 8.1 0 0 1 2.872-3.91 7.472 7.472 0 0 1 4.424-1.456 7.509 7.509 0 0 1 1.547.162 7.683 7.683 0 0 1 5.437 4.31 7.851 7.851 0 0 1 .732 2.324.976.976 0 0 0 .945.86h.008a.956.956 0 0 0 .95-.852 1.514 1.514 0 0 0-.058-.525zm-14.5-13.441a5.083 5.083 0 0 1 4.958-5.181h.006a4.823 4.823 0 0 1 3.428 1.44 5.245 5.245 0 0 1 1.529 3.745 5.083 5.083 0 0 1-4.969 5.172 5.075 5.075 0 0 1-4.95-5.176z" transform="translate(226.98 -374.96)" style="fill:#fff"/><path data-name="Rectangle 9" style="fill:none" d="M0 0h40v44H0z"/></svg>