<svg xmlns="http://www.w3.org/2000/svg" width="26" height="26" viewBox="0 0 26 26">
    <path data-name="Rectangle 9" style="fill:none" d="M0 0h26v26H0z"/>
    <g data-name="Path 1131" style="fill:#fff">
        <path d="M-70.925 373.604a.78.78 0 0 1-.751-.93c.136-.763.33-1.419.591-2.004.752-1.688 1.933-2.974 3.509-3.82.16-.086.326-.164.488-.238-1.428-1.013-2.242-2.407-2.42-4.148-.169-1.64.275-3.092 1.319-4.318 1.052-1.234 2.546-1.942 4.1-1.942 1.481 0 2.872.622 3.915 1.752 1.22 1.321 1.71 2.917 1.457 4.744-.226 1.633-1.03 2.947-2.392 3.912 2.11.959 3.56 2.609 4.313 4.908.082.252.139.512.193.765.015.071.03.143.047.215l.002.012c.029.126.06.268.042.414a.756.756 0 0 1-.75.674h-.007c-.377-.003-.685-.283-.748-.68a6.23 6.23 0 0 0-.579-1.838c-.94-1.859-2.386-3.006-4.3-3.409a5.91 5.91 0 0 0-4.723 1.022 6.408 6.408 0 0 0-2.271 3.093c-.14.402-.233.78-.284 1.154a.774.774 0 0 1-.751.662zm6.826-15.82c-2.162.002-3.922 1.84-3.922 4.097 0 2.256 1.757 4.093 3.917 4.094 2.165 0 3.928-1.834 3.93-4.09a4.15 4.15 0 0 0-1.209-2.962 3.815 3.815 0 0 0-2.711-1.14h-.005z" style="stroke:none" transform="translate(77.489 -352.904)"/>
        <path d="M-70.925 373.404a.572.572 0 0 0 .553-.489c.056-.41.158-.805.293-1.193 1.078-3.09 4.13-4.897 7.224-4.245 2.01.424 3.482 1.625 4.438 3.515.3.595.492 1.232.597 1.896.048.3.275.51.552.512h.005c.278 0 .514-.2.552-.5.015-.115-.014-.24-.04-.357-.073-.322-.133-.65-.235-.961-.766-2.34-2.248-3.972-4.449-4.894l-.087-.04c1.451-.92 2.364-2.221 2.607-3.975.243-1.754-.227-3.304-1.406-4.58-2.144-2.324-5.654-2.238-7.716.183-1.008 1.184-1.434 2.595-1.272 4.168.19 1.853 1.11 3.235 2.627 4.2-.268.128-.54.243-.8.382-1.549.832-2.686 2.078-3.42 3.725a8.424 8.424 0 0 0-.577 1.958.582.582 0 0 0 .554.695m6.83-15.82c2.276 0 4.124 1.928 4.122 4.301-.003 2.368-1.853 4.29-4.129 4.29h-.002c-2.267 0-4.117-1.931-4.117-4.294 0-2.372 1.844-4.295 4.121-4.297h.006m-6.831 16.22a.979.979 0 0 1-.948-1.164c.14-.78.338-1.451.605-2.052.77-1.73 1.981-3.046 3.597-3.914.065-.035.13-.069.196-.1-1.31-1.029-2.06-2.401-2.232-4.09-.174-1.695.285-3.199 1.366-4.467 1.09-1.28 2.639-2.013 4.251-2.013 1.539 0 2.982.645 4.063 1.817 1.262 1.367 1.77 3.018 1.508 4.906-.218 1.58-.959 2.87-2.205 3.847 2 1 3.384 2.64 4.118 4.883.086.262.143.528.198.785l.047.214.003.012c.03.135.067.302.044.484a.954.954 0 0 1-.949.848h-.007c-.478-.004-.866-.353-.945-.848a6.031 6.031 0 0 0-.56-1.78c-.91-1.802-2.31-2.913-4.162-3.303a5.712 5.712 0 0 0-4.564.988 6.209 6.209 0 0 0-2.2 2.997 5.716 5.716 0 0 0-.275 1.115.977.977 0 0 1-.95.835zm6.826-15.82c-2.052.002-3.722 1.75-3.722 3.897 0 2.146 1.667 3.893 3.717 3.894 2.055 0 3.728-1.745 3.73-3.89a3.952 3.952 0 0 0-1.15-2.82 3.616 3.616 0 0 0-2.57-1.081h-.005z" style="fill:#fff;stroke:none" transform="translate(77.489 -352.904)"/>
    </g>
</svg>
